<svg width="22" height="18" viewBox="0 0 22 18" fill="none" xmlns="http://www.w3.org/2000/svg">
<path opacity="0.4" d="M16.8877 7.8967C18.2827 7.7007 19.3567 6.5047 19.3597 5.0557C19.3597 3.6277 18.3187 2.4437 16.9537 2.2197" stroke="#130F26" stroke-width="1.5" stroke-linecap="round" stroke-linejoin="round"/>
<path d="M18.7285 11.2503C20.0795 11.4523 21.0225 11.9253 21.0225 12.9003C21.0225 13.5713 20.5785 14.0073 19.8605 14.2813" stroke="#130F26" stroke-width="1.5" stroke-linecap="round" stroke-linejoin="round"/>
<path fill-rule="evenodd" clip-rule="evenodd" d="M10.8867 11.6638C7.67267 11.6638 4.92767 12.1508 4.92767 14.0958C4.92767 16.0398 7.65567 16.5408 10.8867 16.5408C14.1007 16.5408 16.8447 16.0588 16.8447 14.1128C16.8447 12.1668 14.1177 11.6638 10.8867 11.6638Z" stroke="#130F26" stroke-width="1.5" stroke-linecap="round" stroke-linejoin="round"/>
<path opacity="0.4" fill-rule="evenodd" clip-rule="evenodd" d="M10.8867 8.88791C12.9957 8.88791 14.7057 7.17891 14.7057 5.06891C14.7057 2.95991 12.9957 1.24991 10.8867 1.24991C8.77766 1.24991 7.06766 2.95991 7.06766 5.06891C7.05966 7.17091 8.75666 8.88091 10.8587 8.88791H10.8867Z" stroke="#130F26" stroke-width="1.5" stroke-linecap="round" stroke-linejoin="round"/>
<path opacity="0.4" d="M4.88478 7.8967C3.48878 7.7007 2.41578 6.5047 2.41278 5.0557C2.41278 3.6277 3.45378 2.4437 4.81878 2.2197" stroke="#130F26" stroke-width="1.5" stroke-linecap="round" stroke-linejoin="round"/>
<path d="M3.04388 11.2503C1.69288 11.4523 0.749878 11.9253 0.749878 12.9003C0.749878 13.5713 1.19388 14.0073 1.91188 14.2813" stroke="#130F26" stroke-width="1.5" stroke-linecap="round" stroke-linejoin="round"/>
</svg>
