<svg xmlns="http://www.w3.org/2000/svg" xmlns:xlink="http://www.w3.org/1999/xlink" version="1.1" width="1000" height="1000" viewBox="0 0 1000 1000" xml:space="preserve">
<desc>Created with Fabric.js 3.5.0</desc>
<defs>
</defs>
<rect x="0" y="0" width="100%" height="100%" fill="#ffffff"/>
<g transform="matrix(41.3223 0 0 41.3223 499.9998 499.9999)" id="208384">
<g style="" vector-effect="non-scaling-stroke">
		<g transform="matrix(1 0 0 1 7.1237 -3.9418)">
<path style="stroke: rgb(255,47,47); stroke-width: 1.5; stroke-dasharray: none; stroke-linecap: round; stroke-dashoffset: 0; stroke-linejoin: round; stroke-miterlimit: 4; is-custom-font: none; font-file-url: none; fill: none; fill-rule: nonzero; opacity: 0.4;" transform=" translate(-18.1237, -5.0582)" d="M 16.8877 7.8967 C 18.2827 7.7007 19.3567 6.5047 19.3597 5.0557 C 19.3597 3.6277 18.3187 2.4437 16.9537 2.2197" stroke-linecap="round"/>
</g>
		<g transform="matrix(1 0 0 1 8.8755 3.7658)">
<path style="stroke: rgb(255,47,47); stroke-width: 1.5; stroke-dasharray: none; stroke-linecap: round; stroke-dashoffset: 0; stroke-linejoin: round; stroke-miterlimit: 4; is-custom-font: none; font-file-url: none; fill: none; fill-rule: nonzero; opacity: 1;" transform=" translate(-19.8755, -12.7658)" d="M 18.7285 11.2503 C 20.0795 11.4523 21.0225 11.9253 21.0225 12.9003 C 21.0225 13.5713 20.5785 14.0073 19.8605 14.2813" stroke-linecap="round"/>
</g>
		<g transform="matrix(1 0 0 1 -0.1138 5.1023)">
<path style="stroke: rgb(255,47,47); stroke-width: 1.5; stroke-dasharray: none; stroke-linecap: round; stroke-dashoffset: 0; stroke-linejoin: round; stroke-miterlimit: 4; is-custom-font: none; font-file-url: none; fill: none; fill-rule: evenodd; opacity: 1;" transform=" translate(-10.8862, -14.1023)" d="M 10.8867 11.6638 C 7.67267 11.6638 4.92767 12.1508 4.92767 14.0958 C 4.92767 16.0398 7.65567 16.5408 10.8867 16.5408 C 14.1007 16.5408 16.8447 16.0588 16.8447 14.1128 C 16.8447 12.1668 14.1177 11.6638 10.8867 11.6638 Z" stroke-linecap="round"/>
</g>
		<g transform="matrix(1 0 0 1 -0.1134 -3.9311)">
<path style="stroke: rgb(255,47,47); stroke-width: 1.5; stroke-dasharray: none; stroke-linecap: round; stroke-dashoffset: 0; stroke-linejoin: round; stroke-miterlimit: 4; is-custom-font: none; font-file-url: none; fill: none; fill-rule: evenodd; opacity: 0.4;" transform=" translate(-10.8867, -5.0689)" d="M 10.8867 8.88791 C 12.9957 8.88791 14.7057 7.17891 14.7057 5.06891 C 14.7057 2.95991 12.9957 1.24991 10.8867 1.24991 C 8.77766 1.24991 7.06766 2.95991 7.06766 5.06891 C 7.05966 7.17091 8.75666 8.88091 10.8587 8.88791 H 10.8867 Z" stroke-linecap="round"/>
</g>
		<g transform="matrix(1 0 0 1 -7.3512 -3.9418)">
<path style="stroke: rgb(255,47,47); stroke-width: 1.5; stroke-dasharray: none; stroke-linecap: round; stroke-dashoffset: 0; stroke-linejoin: round; stroke-miterlimit: 4; is-custom-font: none; font-file-url: none; fill: none; fill-rule: nonzero; opacity: 0.4;" transform=" translate(-3.6488, -5.0582)" d="M 4.88478 7.8967 C 3.48878 7.7007 2.41578 6.5047 2.41278 5.0557 C 2.41278 3.6277 3.45378 2.4437 4.81878 2.2197" stroke-linecap="round"/>
</g>
		<g transform="matrix(1 0 0 1 -9.1031 3.7658)">
<path style="stroke: rgb(255,47,47); stroke-width: 1.5; stroke-dasharray: none; stroke-linecap: round; stroke-dashoffset: 0; stroke-linejoin: round; stroke-miterlimit: 4; is-custom-font: none; font-file-url: none; fill: none; fill-rule: nonzero; opacity: 1;" transform=" translate(-1.8969, -12.7658)" d="M 3.04388 11.2503 C 1.69288 11.4523 0.749878 11.9253 0.749878 12.9003 C 0.749878 13.5713 1.19388 14.0073 1.91188 14.2813" stroke-linecap="round"/>
</g>
</g>
</g>
</svg>
