<svg width="24" height="24" viewBox="0 0 24 24" fill="none" xmlns="http://www.w3.org/2000/svg">
<path opacity="0.4" d="M3.09277 9.40426H20.9167" stroke="#130F26" stroke-width="1.5" stroke-linecap="round" stroke-linejoin="round"/>
<path opacity="0.4" fill-rule="evenodd" clip-rule="evenodd" d="M6.80762 13.3097C6.80762 12.8955 7.1434 12.5597 7.55762 12.5597H7.56688C7.98109 12.5597 8.31688 12.8955 8.31688 13.3097C8.31688 13.7239 7.98109 14.0597 7.56688 14.0597H7.55762C7.1434 14.0597 6.80762 13.7239 6.80762 13.3097ZM12.0043 12.5597C11.5901 12.5597 11.2543 12.8955 11.2543 13.3097C11.2543 13.7239 11.5901 14.0597 12.0043 14.0597H12.0136C12.4278 14.0597 12.7636 13.7239 12.7636 13.3097C12.7636 12.8955 12.4278 12.5597 12.0136 12.5597H12.0043ZM16.4418 12.5597C16.0276 12.5597 15.6918 12.8955 15.6918 13.3097C15.6918 13.7239 16.0276 14.0597 16.4418 14.0597H16.4511C16.8653 14.0597 17.2011 13.7239 17.2011 13.3097C17.2011 12.8955 16.8653 12.5597 16.4511 12.5597H16.4418ZM16.4418 16.4462C16.0276 16.4462 15.6918 16.782 15.6918 17.1962C15.6918 17.6104 16.0276 17.9462 16.4418 17.9462H16.4511C16.8653 17.9462 17.2011 17.6104 17.2011 17.1962C17.2011 16.782 16.8653 16.4462 16.4511 16.4462H16.4418ZM11.2543 17.1962C11.2543 16.782 11.5901 16.4462 12.0043 16.4462H12.0136C12.4278 16.4462 12.7636 16.782 12.7636 17.1962C12.7636 17.6104 12.4278 17.9462 12.0136 17.9462H12.0043C11.5901 17.9462 11.2543 17.6104 11.2543 17.1962ZM7.55762 16.4462C7.1434 16.4462 6.80762 16.782 6.80762 17.1962C6.80762 17.6104 7.1434 17.9462 7.55762 17.9462H7.56688C7.98109 17.9462 8.31688 17.6104 8.31688 17.1962C8.31688 16.782 7.98109 16.4462 7.56688 16.4462H7.55762Z" fill="#130F26"/>
<path d="M16.0433 2V5.29078" stroke="#130F26" stroke-width="1.5" stroke-linecap="round" stroke-linejoin="round"/>
<path d="M7.96515 2V5.29078" stroke="#130F26" stroke-width="1.5" stroke-linecap="round" stroke-linejoin="round"/>
<path fill-rule="evenodd" clip-rule="evenodd" d="M16.2383 3.57919H7.77096C4.83427 3.57919 3 5.21513 3 8.22222V17.2719C3 20.3262 4.83427 22 7.77096 22H16.229C19.175 22 21 20.3546 21 17.3475V8.22222C21.0092 5.21513 19.1842 3.57919 16.2383 3.57919Z" stroke="#130F26" stroke-width="1.5" stroke-linecap="round" stroke-linejoin="round"/>
</svg>
