<svg xmlns="http://www.w3.org/2000/svg" xmlns:xlink="http://www.w3.org/1999/xlink" version="1.1" width="1000" height="1000" viewBox="0 0 1000 1000" xml:space="preserve">
<desc>Created with Fabric.js 3.5.0</desc>
<defs>
</defs>
<rect x="0" y="0" width="100%" height="100%" fill="#ffffff"/>
<g transform="matrix(45.4545 0 0 45.4545 499.9995 499.9995)" id="259764">
<g style="" vector-effect="non-scaling-stroke">
		<g transform="matrix(1 0 0 1 -5.5 -5.5)">
<path style="stroke: rgb(255,47,47); stroke-width: 1.5; stroke-dasharray: none; stroke-linecap: round; stroke-dashoffset: 0; stroke-linejoin: round; stroke-miterlimit: 4; is-custom-font: none; font-file-url: none; fill: none; fill-rule: evenodd; opacity: 1;" transform=" translate(-4.5, -4.5)" d="M 1 4.5 C 1 1.87479 1.02811 1 4.5 1 C 7.97189 1 8 1.87479 8 4.5 C 8 7.12521 8.01107 8 4.5 8 C 0.988927 8 1 7.12521 1 4.5 Z" stroke-linecap="round"/>
</g>
		<g transform="matrix(1 0 0 1 5.5 -5.5)">
<path style="stroke: rgb(255,47,47); stroke-width: 1.5; stroke-dasharray: none; stroke-linecap: round; stroke-dashoffset: 0; stroke-linejoin: round; stroke-miterlimit: 4; is-custom-font: none; font-file-url: none; fill: none; fill-rule: evenodd; opacity: 0.4;" transform=" translate(-15.5, -4.5)" d="M 12 4.5 C 12 1.87479 12.0281 1 15.5 1 C 18.9719 1 19 1.87479 19 4.5 C 19 7.12521 19.0111 8 15.5 8 C 11.9889 8 12 7.12521 12 4.5 Z" stroke-linecap="round"/>
</g>
		<g transform="matrix(1 0 0 1 -5.5 5.5)">
<path style="stroke: rgb(255,47,47); stroke-width: 1.5; stroke-dasharray: none; stroke-linecap: round; stroke-dashoffset: 0; stroke-linejoin: round; stroke-miterlimit: 4; is-custom-font: none; font-file-url: none; fill: none; fill-rule: evenodd; opacity: 1;" transform=" translate(-4.5, -15.5)" d="M 1 15.5 C 1 12.8748 1.02811 12 4.5 12 C 7.97189 12 8 12.8748 8 15.5 C 8 18.1252 8.01107 19 4.5 19 C 0.988927 19 1 18.1252 1 15.5 Z" stroke-linecap="round"/>
</g>
		<g transform="matrix(1 0 0 1 5.5 5.5)">
<path style="stroke: rgb(255,47,47); stroke-width: 1.5; stroke-dasharray: none; stroke-linecap: round; stroke-dashoffset: 0; stroke-linejoin: round; stroke-miterlimit: 4; is-custom-font: none; font-file-url: none; fill: none; fill-rule: evenodd; opacity: 1;" transform=" translate(-15.5, -15.5)" d="M 12 15.5 C 12 12.8748 12.0281 12 15.5 12 C 18.9719 12 19 12.8748 19 15.5 C 19 18.1252 19.0111 19 15.5 19 C 11.9889 19 12 18.1252 12 15.5 Z" stroke-linecap="round"/>
</g>
</g>
</g>
</svg>
