<svg width="94" height="108" viewBox="0 0 94 108" fill="none" xmlns="http://www.w3.org/2000/svg">
<g clip-path="url(#clip0_1716_4697)">
<path d="M50.9301 9.57556H45.2676V18.4094H50.9301V9.57556Z" fill="#263238"/>
<path d="M53.9639 12.2076H42.3047V2.6938C46.3845 1.68849 50.2856 1.62694 53.9639 2.6938V12.2076Z" fill="#DBDBDB"/>
<path d="M54.1017 2.73482C53.967 2.82298 53.8224 2.8948 53.6708 2.94878C53.2761 3.12837 52.8709 3.28399 52.4574 3.41479C51.8381 3.60683 51.2065 3.75665 50.567 3.86322C49.7816 3.9882 48.9881 4.05579 48.1929 4.06546C47.3983 4.06446 46.6047 4.0047 45.8189 3.88667C45.1777 3.78629 44.5442 3.64235 43.9226 3.45582C43.5041 3.33326 43.093 3.18647 42.6916 3.01619C42.541 2.96226 42.3966 2.89251 42.2607 2.80809C42.2607 2.77292 42.9026 3.0367 43.9636 3.321C44.5828 3.48571 45.2111 3.61392 45.8453 3.70495C46.6224 3.8107 47.4057 3.86456 48.19 3.86615C48.9749 3.85897 49.7584 3.79727 50.5347 3.68151C51.1694 3.58532 51.7977 3.45123 52.4164 3.27997C53.4598 2.97222 54.087 2.69965 54.1017 2.73482Z" fill="#263238"/>
<path d="M46.1563 12.2075C46.1006 12.2075 46.0566 10.3786 46.0566 8.12477C46.0566 5.87089 46.1006 4.03906 46.1563 4.03906C46.212 4.03906 46.2559 5.86796 46.2559 8.12477C46.2559 10.3816 46.212 12.2075 46.1563 12.2075Z" fill="#263238"/>
<path d="M48.375 12.2456C48.3194 12.2456 48.2754 10.4109 48.2754 8.14235C48.2754 5.87382 48.3194 4.03906 48.375 4.03906C48.4307 4.03906 48.4747 5.87382 48.4747 8.14235C48.4747 10.4109 48.4307 12.2456 48.375 12.2456Z" fill="#263238"/>
<path d="M50.5928 12.2075C50.5371 12.2075 50.4932 10.3698 50.4932 8.1042C50.4932 5.8386 50.5371 4.00092 50.5928 4.00092C50.6485 4.00092 50.6925 5.83567 50.6925 8.1042C50.6925 10.3727 50.6485 12.2075 50.5928 12.2075Z" fill="#263238"/>
<path d="M52.4405 12.2075C52.3848 12.2075 52.3408 10.2233 52.3408 7.77304C52.3408 5.32279 52.3848 3.34149 52.4405 3.34149C52.4962 3.34149 52.5401 5.32572 52.5401 7.77304C52.5401 10.2204 52.4962 12.2075 52.4405 12.2075Z" fill="#263238"/>
<path d="M44.0577 12.1547C44.002 12.1547 43.958 10.1676 43.958 7.72025C43.958 5.27293 44.002 3.28577 44.0577 3.28577C44.1133 3.28577 44.1573 5.27293 44.1573 7.72025C44.1573 10.1676 44.1133 12.1547 44.0577 12.1547Z" fill="#263238"/>
<path d="M83.1667 23.8993L80.3379 20.9391L75.7186 25.3534L78.5474 28.3136L83.1667 23.8993Z" fill="#263238"/>
<path d="M83.2993 26.8094L77.4756 20.7072L82.4582 15.9503C85.0256 17.5799 87.004 19.5876 88.2848 22.0466L83.2993 26.8094Z" fill="#DBDBDB"/>
<path d="M78.4489 21.733C78.4167 21.6979 79.5451 20.5607 80.9695 19.1773C82.3939 17.7939 83.578 16.7124 83.6073 16.7446C83.6366 16.7768 82.5112 17.917 81.0867 19.3004C79.6623 20.6838 78.4812 21.7682 78.4489 21.733Z" fill="#263238"/>
<path d="M79.5596 22.8966C79.7918 22.6209 80.0456 22.3641 80.3187 22.1287C80.7993 21.6715 81.4735 21.0472 82.2208 20.3702L84.1465 18.6292L84.7326 18.1046C84.8733 17.9815 84.9437 17.917 84.9495 17.917C85.014 17.9756 83.8329 19.1304 82.3352 20.4962C81.5878 21.182 80.9019 21.7917 80.3978 22.2254C80.1368 22.4712 79.8565 22.6957 79.5596 22.8966Z" fill="#263238"/>
<path d="M81.0371 24.4412C81.2742 24.1651 81.5318 23.9074 81.8079 23.6704C82.2945 23.2102 82.9803 22.583 83.7394 21.8942L85.6973 20.1357L86.2835 19.614C86.355 19.5489 86.4303 19.4883 86.5091 19.4323C86.2941 19.7262 86.0441 19.9929 85.7647 20.2265C85.2811 20.6925 84.5923 21.3227 83.8391 22.0115C83.0858 22.7002 82.3736 23.3099 81.8724 23.7495C81.6134 24.0025 81.334 24.2339 81.0371 24.4412Z" fill="#263238"/>
<path d="M82.4206 25.851C82.3883 25.8158 83.5314 24.6786 84.9764 23.3128C86.4213 21.947 87.6142 20.8626 87.6464 20.8977C87.6787 20.9329 86.5356 22.0701 85.0907 23.4359C83.6457 24.8017 82.4528 25.8832 82.4206 25.851Z" fill="#263238"/>
<path d="M11.8307 23.4666L8.76074 26.176L12.9886 30.9665L16.0586 28.2572L11.8307 23.4666Z" fill="#263238"/>
<path d="M14.7399 23.4505L8.41793 29.0193L3.86035 23.8667C5.59546 21.3696 7.67055 19.4703 10.1853 18.298L14.7399 23.4505Z" fill="#DBDBDB"/>
<path d="M9.47595 28.0961C9.44078 28.1283 8.34461 26.9559 7.02277 25.4758C5.70092 23.9957 4.67803 22.7735 4.69855 22.7442C4.71906 22.7149 5.82988 23.8843 7.15172 25.3644C8.47357 26.8446 9.51112 28.0667 9.47595 28.0961Z" fill="#263238"/>
<path d="M10.6797 27.0321C10.4202 26.7886 10.1792 26.5261 9.95873 26.2467C9.52203 25.7455 8.92412 25.0479 8.27052 24.2741L6.60576 22.2811L6.08992 21.6744C5.97268 21.5279 5.91113 21.4575 5.91113 21.4487C5.97268 21.3872 7.0835 22.6211 8.38776 24.1628C9.04136 24.9395 9.62168 25.6487 10.0379 26.1675C10.275 26.4378 10.4897 26.7269 10.6797 27.0321Z" fill="#263238"/>
<path d="M12.2862 25.6165C12.0188 25.3702 11.7709 25.1037 11.5447 24.8193C11.105 24.3122 10.5042 23.6059 9.84766 22.8174L8.17997 20.7922L7.68171 20.1708C7.61689 20.0982 7.559 20.0197 7.50879 19.9363C7.79194 20.1649 8.04765 20.4256 8.27083 20.713C8.71926 21.2172 9.32303 21.9206 9.97956 22.709C10.6361 23.4974 11.2223 24.2155 11.6385 24.743C11.8768 25.0169 12.0934 25.3089 12.2862 25.6165Z" fill="#263238"/>
<path d="M13.7491 24.2917C13.7139 24.3211 12.6207 23.1194 11.3135 21.6539C10.0063 20.1885 8.96877 18.9194 9.00688 18.8901C9.04498 18.8607 10.1324 20.0448 11.4395 21.5279C12.7467 23.0109 13.7843 24.2595 13.7491 24.2917Z" fill="#263238"/>
<path d="M80 94C98.2254 75.7746 98.2254 46.2254 80 28C61.7746 9.77461 32.2254 9.77461 14 28C-4.22539 46.2254 -4.22539 75.7746 14 94C32.2254 112.225 61.7746 112.225 80 94Z" fill="#DBDBDB"/>
<path d="M77.3179 91.3182C94.0622 74.5739 94.0622 47.4261 77.3179 30.6818C60.5737 13.9375 33.4258 13.9375 16.6815 30.6818C-0.062789 47.4261 -0.062789 74.5739 16.6815 91.3182C33.4258 108.063 60.5737 108.063 77.3179 91.3182Z" fill="white"/>
<path d="M46.9995 104.022C23.2767 104.022 3.97656 84.7214 3.97656 60.9986C3.97656 37.2757 23.2767 17.9756 46.9995 17.9756C70.7224 17.9756 90.0225 37.2757 90.0225 60.9986C90.0225 84.7214 70.7224 104.022 46.9995 104.022ZM46.9995 18.2687C23.4379 18.2687 4.26965 37.4369 4.26965 60.9986C4.26965 84.5602 23.4408 103.728 46.9995 103.728C70.5583 103.728 89.7294 84.5602 89.7294 60.9986C89.7294 37.4369 70.5612 18.2687 46.9995 18.2687Z" fill="#263238"/>
<path d="M20.0947 43.8761C21.8797 38.3308 25.5404 34.5792 30.3911 31.3523C35.2417 28.1253 41.8539 26.9119 47.66 27.4043V61.9599L20.0947 43.8761Z" fill="#DBDBDB"/>
<g opacity="0.8">
<path d="M20.0938 43.8761C21.8787 38.3308 25.5394 34.5792 30.3901 31.3523C35.2407 28.1253 41.8529 26.9119 47.6591 27.4043V61.9599L20.0938 43.8761Z" fill="white"/>
</g>
<path d="M43.9485 61.7723L24.6602 46.7894L47.2488 57.203L47.9111 61.1597L43.9485 61.7723Z" fill="#DBDBDB"/>
<g opacity="0.4">
<path d="M24.6611 46.7894L44.8024 58.6303L47.2497 57.203L24.6611 46.7894Z" fill="black"/>
</g>
<path d="M49.4439 64.9451C51.4942 64.1042 52.4746 61.7605 51.6337 59.7102C50.7929 57.66 48.4491 56.6796 46.3989 57.5204C44.3486 58.3613 43.3682 60.705 44.2091 62.7553C45.0499 64.8056 47.3937 65.786 49.4439 64.9451Z" fill="#FAFAFA"/>
<path d="M47.9234 57.2118C47.5972 57.2487 47.2734 57.3035 46.9532 57.3759C46.2247 57.5693 45.566 57.9657 45.0539 58.5188C44.5418 59.0719 44.1973 59.759 44.0604 60.5003C43.9376 61.188 43.9993 61.8959 44.2392 62.552C44.3653 62.9081 44.5462 63.2424 44.7756 63.5426C45.0066 63.8621 45.2877 64.1422 45.608 64.3721C46.2787 64.8651 47.0894 65.131 47.9219 65.131C48.7544 65.131 49.5651 64.8651 50.2359 64.3721C50.5577 64.143 50.8399 63.8628 51.0712 63.5426C51.2995 63.2417 51.4804 62.9076 51.6076 62.552C51.8466 61.8957 51.9073 61.1877 51.7834 60.5003C51.6753 59.8969 51.4262 59.3275 51.0565 58.8385C50.5205 58.121 49.7586 57.6048 48.8935 57.373C48.5733 57.3008 48.2495 57.246 47.9234 57.2089C48.2552 57.1852 48.5887 57.2149 48.9111 57.2968C49.668 57.4781 50.3566 57.8736 50.8945 58.436C51.4325 58.9984 51.7971 59.7039 51.9446 60.4681C52.0824 61.1882 52.0247 61.932 51.7775 62.6223C51.5006 63.3853 51.0052 64.0499 50.3531 64.5333C49.6487 65.0508 48.7975 65.33 47.9234 65.33C47.0493 65.33 46.198 65.0508 45.4937 64.5333C45.1553 64.2892 44.8585 63.9923 44.6144 63.654C44.3772 63.3378 44.1904 62.9868 44.0604 62.6135C43.8123 61.9235 43.7536 61.1796 43.8904 60.4593C44.038 59.6951 44.4025 58.9896 44.9405 58.4272C45.4785 57.8648 46.1671 57.4693 46.9239 57.288C47.2508 57.209 47.5883 57.1833 47.9234 57.2118Z" fill="#263238"/>
<path d="M47.9231 58.2377C48.5145 58.2371 49.0928 58.4119 49.5848 58.7401C50.0768 59.0682 50.4605 59.5349 50.6872 60.0811C50.9139 60.6273 50.9735 61.2285 50.8585 61.8086C50.7435 62.3887 50.459 62.9217 50.041 63.3401C49.623 63.7585 49.0904 64.0435 48.5104 64.1591C47.9304 64.2747 47.3291 64.2157 46.7827 63.9895C46.2363 63.7633 45.7692 63.3801 45.4406 62.8884C45.1119 62.3967 44.9365 61.8186 44.9365 61.2272C44.9365 60.4348 45.2511 59.6749 45.8111 59.1143C46.3711 58.5538 47.1308 58.2384 47.9231 58.2377Z" fill="#263238"/>
<path d="M47.7239 60.0489C47.7239 60.0489 46.9032 34.207 48.099 28.7555C48.099 28.7555 50.1126 44.4213 47.7239 60.0489Z" fill="#263238"/>
<path d="M45.3886 100.636H45.3388L45.4531 97.4123H45.544L45.3886 100.636ZM61.4764 98.0219L60.2748 95.0324L60.3627 94.9972L61.5204 98.0073L61.4764 98.0219ZM29.5675 96.4861L29.5177 96.4597L30.9538 93.5728L31.033 93.6138L29.5675 96.4861ZM75.1433 89.0709L72.8455 86.8112L72.907 86.7496L75.1844 89.0299L75.1433 89.0709ZM16.818 86.266L16.7682 86.2045L19.2683 84.1528L19.3093 84.2056L16.818 86.266ZM84.0152 75.3307L80.9934 74.2082L81.0257 74.1232L84.0357 75.2809L84.0152 75.3307ZM9.31192 71.7404L9.28848 71.6583L12.404 70.8259V70.8787L9.31192 71.7404ZM83.2942 59.3484V59.2986L86.5182 59.1052V59.196L83.2942 59.3484ZM83.2942 59.2927V59.2195L86.5182 59.026V59.1022L83.2942 59.2927ZM11.5511 55.9017L8.36523 55.4181V55.3448L11.5541 55.8313L11.5511 55.9017ZM79.3463 44.8052L79.317 44.7466L82.1805 43.2635L82.2156 43.3309L79.3463 44.8052ZM16.8532 41.8743L14.1421 40.1157L14.1772 40.06L16.8942 41.7951L16.8532 41.8743ZM69.8471 33.1929L69.7915 33.1489L71.805 30.6313L71.8607 30.6752L69.8471 33.1929ZM27.4016 31.1852L25.643 28.4858L25.6928 28.4565L27.4807 31.1383L27.4016 31.1852ZM56.4411 26.4254L56.3796 26.4107L57.1885 23.2893L57.2676 23.3098L56.4411 26.4254ZM41.385 25.7249L40.8603 22.5419H40.9307L41.4524 25.7249H41.385Z" fill="#263238"/>
</g>
<defs>
<clipPath id="clip0_1716_4697">
<rect width="94" height="108" fill="white"/>
</clipPath>
</defs>
</svg>
