<svg width="19" height="20" viewBox="0 0 19 20" fill="none" xmlns="http://www.w3.org/2000/svg">
<path opacity="0.4" d="M16.3248 7.4682C16.3248 7.4682 15.7818 14.2032 15.4668 17.0402C15.3168 18.3952 14.4798 19.1892 13.1088 19.2142C10.4998 19.2612 7.88779 19.2642 5.27979 19.2092C3.96079 19.1822 3.13779 18.3782 2.99079 17.0472C2.67379 14.1852 2.13379 7.4682 2.13379 7.4682" stroke="#130F26" stroke-width="1.5" stroke-linecap="round" stroke-linejoin="round"/>
<path d="M17.708 4.2397H0.75" stroke="#130F26" stroke-width="1.5" stroke-linecap="round" stroke-linejoin="round"/>
<path d="M14.4406 4.2397C13.6556 4.2397 12.9796 3.6847 12.8256 2.9157L12.5826 1.6997C12.4326 1.1387 11.9246 0.750702 11.3456 0.750702H7.11258C6.53358 0.750702 6.02558 1.1387 5.87558 1.6997L5.63258 2.9157C5.47858 3.6847 4.80258 4.2397 4.01758 4.2397" stroke="#130F26" stroke-width="1.5" stroke-linecap="round" stroke-linejoin="round"/>
</svg>
