<svg width="12" height="14" viewBox="0 0 12 14" fill="none" xmlns="http://www.w3.org/2000/svg">
<path fill-rule="evenodd" clip-rule="evenodd" d="M7.82465 0.84082H3.38998C2.01732 0.84082 0.833984 1.95349 0.833984 3.32682V10.4848C0.833984 11.9355 1.93932 13.0762 3.38998 13.0762H8.71532C10.0887 13.0762 11.202 11.8582 11.202 10.4848V4.35815L7.82465 0.84082Z" stroke="#6C6C6C" stroke-width="1.25" stroke-linecap="round" stroke-linejoin="round"/>
<path d="M7.65039 0.833008V2.77234C7.65039 3.71901 8.41639 4.48701 9.36306 4.48901C10.2404 4.49101 11.1384 4.49167 11.1991 4.48767" stroke="#6C6C6C" stroke-width="1.25" stroke-linecap="round" stroke-linejoin="round"/>
<path opacity="0.4" fill-rule="evenodd" clip-rule="evenodd" d="M6.38643 5.29297C6.38643 4.94779 6.10661 4.66797 5.76143 4.66797C5.41626 4.66797 5.13643 4.94779 5.13643 5.29297V8.16176L4.31209 7.33365C4.06857 7.08901 3.67284 7.08811 3.42821 7.33163C3.18358 7.57515 3.18267 7.97087 3.42619 8.21551L5.31819 10.1162C5.43547 10.234 5.59485 10.3002 5.76109 10.3002C5.82802 10.3002 5.89385 10.2895 5.95627 10.269C6.04259 10.2407 6.12063 10.1941 6.18579 10.1338C6.19312 10.127 6.20029 10.1201 6.20728 10.113L8.09668 8.21558C8.34024 7.97099 8.33941 7.57527 8.09482 7.3317C7.85022 7.08814 7.4545 7.08898 7.21093 7.33357L6.38643 8.16155V5.29297Z" fill="#6C6C6C"/>
</svg>
