<svg
      width="16"
      height="16"
      viewBox="0 0 16 16"
      fill="none"
      xmlns="http://www.w3.org/2000/svg"
    >
      <path
        opacity="0.4"
        d="M7.16671 12.5834H1.33337"
        stroke="#130F26"
        strokeWidth="1.5"
        strokeLinecap="round"
        strokeLinejoin="round"
      />
      <path
        fillRule="evenodd"
        clipRule="evenodd"
        d="M14.6667 12.5833C14.6667 13.7339 13.7339 14.6667 12.5833 14.6667C11.4327 14.6667 10.5 13.7339 10.5 12.5833C10.5 11.4319 11.4327 10.5 12.5833 10.5C13.7339 10.5 14.6667 11.4319 14.6667 12.5833Z"
        stroke="#130F26"
        strokeWidth="1.5"
        strokeLinecap="round"
        strokeLinejoin="round"
      />
      <path
        opacity="0.4"
        d="M8.83337 3.41667H14.6667"
        stroke="#130F26"
        strokeWidth="1.5"
        strokeLinecap="round"
        strokeLinejoin="round"
      />
      <path
        fillRule="evenodd"
        clipRule="evenodd"
        d="M1.33337 3.41668C1.33337 4.56813 2.26611 5.50001 3.41671 5.50001C4.56731 5.50001 5.50004 4.56813 5.50004 3.41668C5.50004 2.26608 4.56731 1.33334 3.41671 1.33334C2.26611 1.33334 1.33337 2.26608 1.33337 3.41668Z"
        stroke="#130F26"
        strokeWidth="1.5"
        strokeLinecap="round"
        strokeLinejoin="round"
      />
    </svg>
