<svg width="170" height="170" viewBox="0 0 170 170" fill="none" xmlns="http://www.w3.org/2000/svg">
<circle cx="85" cy="85" r="85" fill="white"/>
<path d="M90.9497 77.0669H90.9735" stroke="#777777" stroke-width="2.52" stroke-linecap="round" stroke-linejoin="round"/>
<path d="M94.9161 69.1328H75.0828C71.7967 69.1328 69.1328 71.7967 69.1328 75.0828V94.9161C69.1328 98.2022 71.7967 100.866 75.0828 100.866H94.9161C98.2022 100.866 100.866 98.2022 100.866 94.9161V75.0828C100.866 71.7967 98.2022 69.1328 94.9161 69.1328Z" stroke="#777777" stroke-width="2.52" stroke-linecap="round" stroke-linejoin="round"/>
<path d="M69.1328 90.9494L77.0661 83.0161C77.9707 82.1457 78.9967 81.6875 80.0411 81.6875C81.0856 81.6875 82.1116 82.1457 83.0161 83.0161L92.9328 92.9327" stroke="#777777" stroke-width="2.52" stroke-linecap="round" stroke-linejoin="round"/>
<path d="M88.9668 88.9667L90.9501 86.9834C91.8546 86.113 92.8807 85.6548 93.9251 85.6548C94.9696 85.6548 95.9956 86.113 96.9001 86.9834L100.867 90.95" stroke="#777777" stroke-width="2.52" stroke-linecap="round" stroke-linejoin="round"/>
</svg>
