<svg width="16" height="17" viewBox="0 0 16 17" fill="none" xmlns="http://www.w3.org/2000/svg">
<path d="M6.50705 10.0095C6.12371 9.60954 5.89038 9.06611 5.89038 8.45649C5.89038 7.23516 6.83171 6.25072 7.99971 6.25072C8.57771 6.25072 9.10971 6.49526 9.48638 6.89517" stroke="#AAAAAA" stroke-width="1.25" stroke-linecap="round" stroke-linejoin="round"/>
<path d="M10.0698 8.84741C9.91509 9.74616 9.23775 10.4554 8.37842 10.6184" stroke="#AAAAAA" stroke-width="1.25" stroke-linecap="round" stroke-linejoin="round"/>
<path d="M4.43634 12.1731C3.37834 11.305 2.48234 10.037 1.83301 8.45614C2.48901 6.86834 3.39101 5.59337 4.45567 4.71831C5.51367 3.84324 6.73434 3.36809 7.99967 3.36809C9.27234 3.36809 10.4923 3.85021 11.557 4.73154" stroke="#130F26" stroke-width="1.25" stroke-linecap="round" stroke-linejoin="round"/>
<path d="M12.9651 6.26395C13.4238 6.90074 13.8271 7.63576 14.1664 8.45579C12.8551 11.6307 10.5378 13.5431 7.99977 13.5431C7.42443 13.5431 6.8571 13.4456 6.31177 13.2554" stroke="#130F26" stroke-width="1.25" stroke-linecap="round" stroke-linejoin="round"/>
<path d="M13.2579 2.96072L2.74194 13.9506" stroke="#130F26" stroke-width="1.25" stroke-linecap="round" stroke-linejoin="round"/>
</svg>
