<svg width="275" height="256" viewBox="0 0 275 256" fill="none" xmlns="http://www.w3.org/2000/svg">
<path d="M274 146.594C274.004 144.465 272.28 142.735 270.151 142.731H114.951C112.822 142.735 111.098 144.465 111.102 146.594L192.551 198.78L274 146.594Z" fill="white" stroke="#1B1B1B" stroke-width="0.84" stroke-linecap="round" stroke-linejoin="round"/>
<path d="M247.467 32.3516H150.851V32.3516H115.046C122.259 32.3516 128.106 38.219 128.106 45.4569V55.1669V214.608H260.527V45.4569C260.527 38.219 254.68 32.3516 247.467 32.3516Z" fill="white"/>
<mask id="mask0_1206_1877" style="mask-type:alpha" maskUnits="userSpaceOnUse" x="115" y="32" width="146" height="183">
<path fill-rule="evenodd" clip-rule="evenodd" d="M247.467 32.3516H150.851V32.3516H115.046C122.259 32.3516 128.106 38.219 128.106 45.4569V55.1669V214.608H260.527V45.4569C260.527 38.219 254.68 32.3516 247.467 32.3516Z" fill="white"/>
</mask>
<g mask="url(#mask0_1206_1877)">
<path d="M260.527 35.3196C253.699 216.337 101.986 165.052 101.986 165.052L128.106 236.45L266.805 267.394L303.808 96.3062L260.527 35.3196Z" fill="white"/>
</g>
<path fill-rule="evenodd" clip-rule="evenodd" d="M247.467 32.3516H150.851V32.3516H115.046C122.259 32.3516 128.106 38.219 128.106 45.4569V55.1669V55.1669V214.608H260.527V45.4569C260.527 38.219 254.68 32.3516 247.467 32.3516Z" stroke="#1B1B1B" stroke-width="0.84" stroke-linecap="round" stroke-linejoin="round"/>
<path d="M141.166 214.608C140.379 214.608 141.915 214.742 141.166 214.608V214.608Z" fill="#1B1B1B" stroke="#1B1B1B" stroke-width="0.84" stroke-linecap="round" stroke-linejoin="round"/>
<g opacity="0.73">
<path fill-rule="evenodd" clip-rule="evenodd" d="M141.885 88.2461C143.443 84.5144 147.096 82.0896 151.139 82.1036C156.646 82.1132 161.103 86.5855 161.094 92.0928C161.094 96.1363 158.656 99.781 154.919 101.325C151.182 102.869 146.883 102.008 144.029 99.1441C141.174 96.28 140.328 91.9777 141.885 88.2461ZM146.764 93.9119C147.5 95.6764 149.227 96.8229 151.139 96.8163C152.39 96.8141 153.588 96.3152 154.471 95.4294C155.354 94.5436 155.848 93.3434 155.846 92.0928C155.846 90.1809 154.693 88.4576 152.926 87.7275C151.159 86.9973 149.126 87.4045 147.777 88.7588C146.427 90.1131 146.027 92.1474 146.764 93.9119Z" fill="#FFCDCD"/>
<rect x="165.794" y="85.1348" width="82.678" height="5.57334" rx="0.918552" fill="#FFCDCD"/>
<rect x="165.794" y="93.5619" width="30.2244" height="5.48911" rx="0.904668" fill="#FFCDCD"/>
<rect x="199.345" y="93.5619" width="30.2244" height="5.48911" rx="0.904668" fill="#FFCDCD"/>
</g>
<g opacity="0.73">
<path fill-rule="evenodd" clip-rule="evenodd" d="M141.885 161.205C143.443 157.473 147.096 155.048 151.139 155.062C156.646 155.072 161.103 159.544 161.094 165.051C161.094 169.095 158.656 172.739 154.919 174.284C151.182 175.828 146.883 174.967 144.029 172.103C141.174 169.238 140.328 164.936 141.885 161.205ZM146.764 166.87C147.5 168.635 149.227 169.781 151.139 169.775C152.39 169.773 153.588 169.274 154.471 168.388C155.354 167.502 155.848 166.302 155.846 165.051C155.846 163.139 154.693 161.416 152.926 160.686C151.159 159.956 149.126 160.363 147.777 161.717C146.427 163.072 146.027 165.106 146.764 166.87Z" fill="#FFCDCD"/>
<rect x="165.794" y="158.093" width="82.678" height="5.57334" rx="0.918552" fill="#FFCDCD"/>
<rect x="165.794" y="166.52" width="30.2244" height="5.48911" rx="0.904668" fill="#FFCDCD"/>
<rect x="199.345" y="166.52" width="30.2244" height="5.48911" rx="0.904668" fill="#FFCDCD"/>
</g>
<rect x="180.115" y="52.8281" width="29.4269" height="5.68916" rx="0.937644" fill="#FFCDCD"/>
<rect x="170.126" y="64.0708" width="49.4047" height="3.25094" rx="0.5358" fill="#FFCDCD"/>
<path fill-rule="evenodd" clip-rule="evenodd" d="M141.885 124.725C143.443 120.993 147.096 118.569 151.139 118.583C156.646 118.592 161.103 123.065 161.094 128.572C161.094 132.615 158.656 136.26 154.919 137.804C151.182 139.348 146.883 138.487 144.029 135.623C141.174 132.759 140.328 128.457 141.885 124.725ZM146.764 130.391C147.5 132.155 149.227 133.302 151.139 133.295C152.39 133.293 153.588 132.794 154.471 131.908C155.354 131.023 155.848 129.822 155.846 128.572C155.846 126.66 154.693 124.937 152.926 124.206C151.159 123.476 149.126 123.883 147.777 125.238C146.427 126.592 146.027 128.626 146.764 130.391Z" fill="#FFCDCD"/>
<rect x="165.794" y="121.614" width="82.678" height="5.57334" rx="0.918552" fill="#FFCDCD"/>
<rect x="165.794" y="130.041" width="30.2244" height="5.48911" rx="0.904668" fill="#FFCDCD"/>
<rect x="199.345" y="130.041" width="30.2244" height="5.48911" rx="0.904668" fill="#FFCDCD"/>
<path d="M192.551 198.78L111.102 146.594V244.919C111.093 250.382 115.514 254.819 120.977 254.829H264.125C269.588 254.819 274.01 250.382 274 244.919V146.594L192.551 198.78Z" fill="white"/>
<path fill-rule="evenodd" clip-rule="evenodd" d="M192.551 198.78L111.102 146.594V244.919C111.093 250.382 115.514 254.819 120.977 254.829H264.125C269.588 254.819 274.01 250.382 274 244.919V146.594L192.551 198.78Z" stroke="#1B1B1B" stroke-width="0.84" stroke-linecap="round" stroke-linejoin="round"/>
<rect x="102.133" y="101.199" width="19.9871" height="43.9386" transform="rotate(41.994 102.133 101.199)" fill="white"/>
<rect x="101.63" y="101.758" width="19.9871" height="43.1868" transform="rotate(41.994 101.63 101.758)" stroke="#1B1B1B" stroke-width="0.745736" stroke-linecap="round" stroke-linejoin="round"/>
<path d="M41.072 183.965C33.7565 177.38 33.313 166.043 40.0897 158.857L76.387 120.368L100.621 142.183L66.145 182.312C59.7083 189.804 48.3875 190.551 41.072 183.965Z" fill="white"/>
<path fill-rule="evenodd" clip-rule="evenodd" d="M41.072 183.965V183.965C33.7565 177.38 33.313 166.043 40.0897 158.857L76.387 120.368L100.621 142.183L66.145 182.312C59.7083 189.804 48.3875 190.551 41.072 183.965Z" stroke="#1B1B1B" stroke-width="0.745736" stroke-linecap="round" stroke-linejoin="round"/>
<mask id="mask1_1206_1877" style="mask-type:alpha" maskUnits="userSpaceOnUse" x="41" y="122" width="58" height="60">
<path fill-rule="evenodd" clip-rule="evenodd" d="M47.2305 177.095C40.7882 171.296 40.2126 161.517 45.9558 155.439L76.7173 122.88L98.0585 142.092L68.9011 176.094C63.4574 182.443 53.6728 182.894 47.2305 177.095Z" fill="white" stroke="white"/>
</mask>
<g mask="url(#mask1_1206_1877)">
<path d="M101.762 135.71C50.2645 196.398 43.6041 171.155 31.4094 162.911C19.2148 154.668 28.6142 196.225 28.6142 196.225L50.097 220.98L95.9208 177.387L99.591 147.414" fill="white"/>
</g>
<path fill-rule="evenodd" clip-rule="evenodd" d="M95.4886 40.9182C115.832 18.3198 150.58 16.4342 173.1 36.7072C195.62 56.9801 197.384 91.7342 177.041 114.333C156.697 136.931 121.949 138.817 99.4293 118.544C76.9092 98.2709 75.145 63.5169 95.4886 40.9182ZM106.376 50.7189C91.4636 67.2837 92.7569 92.7587 109.264 107.619C125.772 122.479 151.242 121.097 166.154 104.532C181.066 87.9672 179.772 62.4923 163.265 47.6321C146.758 32.772 121.287 34.154 106.376 50.7189Z" fill="#FF2F2F"/>
</svg>
