<svg width="402" height="276" viewBox="0 0 402 276" fill="none" xmlns="http://www.w3.org/2000/svg">
<path d="M401.088 262.632H0V262.833H401.088V262.632Z" fill="#EBEBEB"/>
<path d="M360.899 275.539H343.508V275.74H360.899V275.539Z" fill="#EBEBEB"/>
<path d="M276.485 271.384H249.123V271.585H276.485V271.384Z" fill="#EBEBEB"/>
<path d="M353.856 268.095H318.135V268.296H353.856V268.095Z" fill="#EBEBEB"/>
<path d="M138.793 272.138H129.856V272.339H138.793V272.138Z" fill="#EBEBEB"/>
<path d="M122.709 272.138H91.9131V272.339H122.709V272.138Z" fill="#EBEBEB"/>
<path d="M75.4117 268.753H53.1914V268.954H75.4117V268.753Z" fill="#EBEBEB"/>
<path d="M190.116 226.855H35.2238C34.0104 226.853 32.8474 226.37 31.9901 225.511C31.1328 224.652 30.6514 223.488 30.6514 222.275V4.54032C30.6619 3.33386 31.1481 2.1803 32.0042 1.33018C32.8603 0.480069 34.0173 0.00206672 35.2238 0H190.116C191.331 0 192.496 0.482579 193.355 1.34158C194.214 2.20057 194.696 3.36562 194.696 4.58042V222.275C194.696 223.49 194.214 224.655 193.355 225.514C192.496 226.373 191.331 226.855 190.116 226.855ZM35.2238 0.160436C34.0635 0.162561 32.9516 0.624947 32.1319 1.4461C31.3123 2.26726 30.8519 3.38009 30.8519 4.54032V222.275C30.8519 223.435 31.3123 224.548 32.1319 225.369C32.9516 226.19 34.0635 226.653 35.2238 226.655H190.116C191.277 226.653 192.39 226.191 193.211 225.37C194.032 224.549 194.494 223.436 194.496 222.275V4.54032C194.494 3.37935 194.032 2.26654 193.211 1.44561C192.39 0.624687 191.277 0.162556 190.116 0.160436H35.2238Z" fill="#EBEBEB"/>
<path d="M363.634 226.855H208.734C207.52 226.853 206.356 226.37 205.497 225.511C204.639 224.653 204.155 223.489 204.153 222.275V4.54032C204.166 3.33313 204.654 2.17957 205.511 1.32968C206.369 0.479788 207.526 0.00204418 208.734 0H363.634C364.839 0.00417492 365.994 0.48311 366.848 1.333C367.703 2.18289 368.188 3.33525 368.198 4.54032V222.275C368.198 223.487 367.718 224.65 366.862 225.508C366.007 226.367 364.846 226.851 363.634 226.855ZM208.734 0.160436C207.573 0.162556 206.46 0.624687 205.639 1.44561C204.818 2.26654 204.356 3.37935 204.354 4.54032V222.275C204.356 223.436 204.818 224.549 205.639 225.37C206.46 226.191 207.573 226.653 208.734 226.655H363.634C364.795 226.653 365.908 226.191 366.729 225.37C367.55 224.549 368.012 223.436 368.014 222.275V4.54032C368.012 3.37935 367.55 2.26654 366.729 1.44561C365.908 0.624687 364.795 0.162556 363.634 0.160436H208.734Z" fill="#EBEBEB"/>
<path d="M173.326 117.021L173.687 106.481L167.221 104.363C166.943 100.791 166.364 97.2488 165.489 93.7744L170.975 89.7635L167.253 79.8646L160.467 80.4101C158.858 77.2208 156.979 74.1748 154.852 71.3054L158.365 65.4415L151.146 57.7326L145.081 60.837C142.354 58.506 139.441 56.4026 136.37 54.548L137.348 47.8097L127.722 43.4458L123.31 48.6118C119.906 47.5231 116.418 46.7181 112.882 46.2053L111.278 39.6034L100.705 39.2424L98.6192 45.716C95.0506 45.9966 91.5115 46.5734 88.0385 47.4407L83.9634 41.9859L74.0646 45.6839L74.6101 52.4703C71.4224 54.1038 68.3769 56.0009 65.5054 58.1417L59.6013 54.548L51.8603 61.7675L54.9648 67.8641C52.6331 70.5774 50.5397 73.4867 48.7078 76.5597L41.9775 75.5489L37.5816 85.175L42.7797 89.579C41.6832 92.9805 40.8781 96.4692 40.3732 100.007L33.6911 101.684L33.3301 112.224L39.8277 114.342C40.0965 117.912 40.6735 121.452 41.5524 124.923L36.0655 128.934L39.7956 138.841L46.582 138.295C48.187 141.487 50.0657 144.533 52.1973 147.4L48.6757 153.264L55.8953 160.973L61.9597 157.868C64.6796 160.199 67.5881 162.3 70.6553 164.149L69.6446 170.88L79.2707 175.251L83.7067 170.085C87.1103 171.184 90.598 172.002 94.135 172.532L95.7394 179.134L106.312 179.495L108.398 173.021C111.969 172.738 115.51 172.161 118.986 171.297L122.997 176.751L132.896 173.053L132.383 166.267C135.565 164.623 138.609 162.727 141.487 160.596L147.319 164.109L155.06 156.89L151.956 150.793C154.288 148.08 156.382 145.171 158.213 142.097L164.943 143.108L169.339 133.482L164.141 129.07C165.256 125.671 166.074 122.182 166.588 118.642L173.326 117.021ZM102.101 151.17C93.8285 150.891 85.8252 148.164 79.1029 143.335C72.3806 138.507 67.2414 131.793 64.3355 124.043C61.4295 116.293 60.8873 107.855 62.7775 99.7972C64.6676 91.7391 68.9052 84.4226 74.9542 78.7732C81.0032 73.1238 88.5918 69.3954 96.7601 68.0595C104.928 66.7236 113.309 67.8403 120.843 71.2683C128.376 74.6963 134.724 80.2817 139.083 87.3178C143.442 94.3539 145.616 102.525 145.33 110.797C144.949 121.882 140.181 132.363 132.075 139.934C123.968 147.505 113.186 151.547 102.101 151.17Z" fill="#EBEBEB"/>
<path d="M353.76 82.1588L356.415 79.6801L355.364 77.5864C356.166 76.6483 356.887 75.6447 357.522 74.5863L359.848 74.9312L361.348 71.6102L359.567 70.0941C359.951 68.9199 360.233 67.7149 360.41 66.4923L362.696 65.9228L362.808 62.2809L360.578 61.559C360.48 60.3255 360.282 59.1021 359.985 57.901L361.87 56.4972L360.586 53.088L358.252 53.2725C357.689 52.1729 357.037 51.1212 356.303 50.1279L357.514 48.1225L355.019 45.4593L352.933 46.5262C351.994 45.7264 350.99 45.0047 349.933 44.3683L350.27 42.042L346.957 40.5259L345.433 42.3148C344.257 41.9484 343.052 41.6801 341.831 41.5126L341.262 39.2344L337.62 39.098L336.89 41.3441C335.661 41.438 334.443 41.6366 333.248 41.9377L331.852 40.0526L328.435 41.3281L328.627 43.6704C327.525 44.2279 326.473 44.8801 325.483 45.6197L323.461 44.4084L320.798 46.8872L321.833 48.9327C321.026 49.8681 320.301 50.872 319.667 51.9328L317.349 51.5879L315.841 54.9089L317.63 56.433C317.259 57.6055 316.99 58.8079 316.827 60.0268L314.533 60.5963L314.421 64.2382L316.659 64.9602C316.75 66.1939 316.946 67.4176 317.245 68.6181L315.351 70.0139L316.635 73.4231L318.977 73.2467C319.54 74.3462 320.192 75.3979 320.927 76.3912L319.715 78.3966L322.21 81.0599L324.296 79.993C325.233 80.7953 326.237 81.5172 327.296 82.1508L326.951 84.4691L330.272 85.9852L331.796 84.2044C332.973 84.5669 334.178 84.8352 335.398 85.0066L335.967 87.2847L339.609 87.4211L340.339 85.175C341.568 85.0816 342.786 84.8831 343.981 84.5814L345.377 86.4665L348.794 85.1911L348.61 82.8487C349.709 82.2905 350.759 81.6383 351.746 80.8994L353.76 82.1588ZM334.812 66.8132C334.112 66.0626 333.65 65.1211 333.484 64.1078C333.319 63.0944 333.458 62.0549 333.884 61.1205C334.309 60.1862 335.002 59.3991 335.875 58.8588C336.748 58.3185 337.762 58.0493 338.788 58.0852C339.814 58.1211 340.807 58.4606 341.64 59.0606C342.473 59.6606 343.109 60.4943 343.469 61.4561C343.828 62.4179 343.894 63.4647 343.658 64.4639C343.422 65.4632 342.895 66.3701 342.144 67.0699C341.646 67.54 341.059 67.9066 340.417 68.1484C339.776 68.3901 339.093 68.5023 338.409 68.4785C337.724 68.4546 337.05 68.2951 336.428 68.0093C335.805 67.7234 335.245 67.3169 334.78 66.8132H334.812Z" fill="#EBEBEB"/>
<path d="M256.697 190.388L248.402 184.653C247.589 181.666 246.471 178.771 245.065 176.014L247.191 167.671L235.158 154.788L226.687 156.336C224.03 154.744 221.215 153.429 218.289 152.413L213.139 143.742L195.491 143.14L189.763 151.435C186.78 152.247 183.888 153.363 181.132 154.764L172.789 152.638L159.906 164.671L161.454 173.126C159.864 175.789 158.552 178.608 157.54 181.54L148.868 186.69L148.267 204.338L156.569 210.066C157.369 213.069 158.485 215.978 159.898 218.745L157.748 227.016L169.781 239.899L178.196 238.359C180.873 239.953 183.706 241.27 186.651 242.289L191.793 250.945L209.441 251.554L215.16 243.26C218.17 242.447 221.089 241.329 223.872 239.923L232.166 242.041L245.057 230.008L243.509 221.553C245.104 218.89 246.416 216.067 247.424 213.13L256.095 207.98L256.697 190.388ZM201.788 217.173C197.87 217.039 194.08 215.747 190.897 213.459C187.713 211.171 185.28 207.991 183.904 204.32C182.528 200.649 182.272 196.653 183.167 192.837C184.062 189.02 186.069 185.555 188.933 182.879C191.798 180.202 195.392 178.436 199.26 177.802C203.129 177.168 207.098 177.696 210.667 179.318C214.236 180.94 217.243 183.584 219.31 186.915C221.376 190.246 222.408 194.115 222.275 198.033C222.091 203.288 219.83 208.254 215.987 211.843C212.144 215.431 207.035 217.349 201.78 217.173H201.788Z" fill="#EBEBEB"/>
<path d="M275.588 140.381H275.532L261.638 139.908C261.357 139.902 261.081 139.826 260.837 139.686C260.593 139.546 260.389 139.346 260.243 139.105L256.496 132.808C254.477 132.07 252.524 131.163 250.657 130.097L244.664 131.132C244.385 131.183 244.098 131.163 243.828 131.073C243.559 130.983 243.317 130.827 243.124 130.618L233.634 120.463C233.435 120.252 233.294 119.994 233.223 119.713C233.153 119.432 233.157 119.138 233.233 118.858L234.749 112.914C233.81 110.988 233.042 108.983 232.455 106.922L226.415 102.751C226.181 102.59 225.991 102.372 225.863 102.119C225.735 101.865 225.674 101.583 225.685 101.299L226.158 87.4051C226.167 87.1246 226.246 86.8507 226.385 86.6074C226.525 86.364 226.723 86.1587 226.96 86.0093L233.273 82.2632C234.001 80.2487 234.906 78.3026 235.977 76.4474L234.87 70.407C234.818 70.1266 234.838 69.8376 234.928 69.567C235.017 69.2963 235.174 69.0527 235.383 68.8588L245.539 59.3771C245.749 59.1772 246.006 59.0346 246.287 58.963C246.568 58.8913 246.863 58.893 247.143 58.968L253.111 60.4921C255.032 59.5523 257.032 58.782 259.087 58.1899L263.259 52.1495C263.414 51.9095 263.63 51.7154 263.885 51.587C264.141 51.4587 264.426 51.4009 264.711 51.4195L278.596 51.9008C278.879 51.9068 279.155 51.9833 279.4 52.1234C279.645 52.2635 279.852 52.4628 280 52.703L283.746 59.0081C285.751 59.7441 287.689 60.6512 289.538 61.7194L295.602 60.6044C295.882 60.5525 296.169 60.5724 296.439 60.6622C296.708 60.752 296.95 60.9088 297.143 61.1178L306.632 71.2734C306.83 71.4846 306.971 71.7427 307.041 72.0235C307.111 72.3042 307.109 72.5983 307.033 72.8777L305.509 78.8379C306.449 80.7601 307.222 82.7595 307.82 84.8141L313.852 88.9854C314.086 89.1462 314.276 89.3637 314.404 89.6175C314.531 89.8714 314.593 90.1534 314.582 90.4373L314.109 104.323C314.099 104.605 314.021 104.88 313.881 105.124C313.742 105.369 313.544 105.576 313.306 105.727L306.993 109.473C306.26 111.483 305.356 113.426 304.29 115.281L305.397 121.329C305.449 121.608 305.429 121.896 305.339 122.166C305.249 122.435 305.093 122.677 304.884 122.869L294.664 132.359C294.454 132.558 294.195 132.7 293.914 132.77C293.633 132.84 293.339 132.837 293.06 132.76L287.123 131.244C285.189 132.18 283.179 132.95 281.115 133.546L276.984 139.579C276.835 139.817 276.63 140.015 276.386 140.154C276.143 140.294 275.869 140.372 275.588 140.381ZM262.681 136.554L274.714 136.964L278.725 131.196C278.947 130.859 279.288 130.619 279.679 130.522C281.937 129.905 284.127 129.064 286.217 128.011C286.581 127.836 286.996 127.793 287.388 127.891L293.003 129.327L301.827 121.105L300.817 115.305C300.739 114.899 300.813 114.48 301.025 114.126C302.217 112.139 303.198 110.034 303.953 107.845C304.081 107.448 304.349 107.111 304.707 106.898L310.748 103.32L311.157 91.2876L305.381 87.2768C305.077 87.069 304.849 86.7676 304.731 86.4184C304.731 86.3783 304.731 86.3302 304.731 86.2821C304.113 84.0648 303.275 81.9149 302.228 79.8647C302.043 79.4976 301.997 79.0756 302.1 78.6774L303.544 72.998L295.322 64.1741L289.554 65.233C289.151 65.306 288.736 65.232 288.383 65.0244C286.393 63.8306 284.285 62.8441 282.094 62.0804C281.968 62.0401 281.847 61.9863 281.733 61.92C281.502 61.7757 281.309 61.5775 281.171 61.3424L277.553 55.286L265.521 54.8688L261.51 60.6525C261.271 60.9916 260.918 61.2336 260.515 61.3344C258.281 61.9449 256.115 62.7808 254.05 63.8292C253.686 64.0149 253.266 64.0606 252.871 63.9575L247.191 62.5136L238.367 70.7359L239.426 76.4875C239.489 76.8503 239.435 77.2237 239.274 77.5544L239.193 77.6908C238 79.6847 237.019 81.7979 236.265 83.9959C236.133 84.3727 235.871 84.6908 235.527 84.8943L229.487 88.48L229.078 100.513L234.862 104.524C235.191 104.749 235.43 105.085 235.535 105.47C236.137 107.723 236.973 109.906 238.03 111.984C238.088 112.102 238.133 112.226 238.167 112.353C238.227 112.617 238.227 112.891 238.167 113.155L236.723 118.77L244.945 127.594L250.673 126.543C251.073 126.47 251.486 126.544 251.836 126.752C253.841 127.943 255.962 128.93 258.165 129.696C258.562 129.814 258.899 130.081 259.103 130.442L262.681 136.554ZM270.117 121.337C269.821 121.337 269.524 121.337 269.227 121.337C262.558 121.22 256.206 118.473 251.553 113.695C246.9 108.918 244.322 102.495 244.38 95.8258C244.439 89.1567 247.13 82.7806 251.866 78.0854C256.603 73.3901 263.003 70.7558 269.672 70.7558C276.342 70.7558 282.741 73.3901 287.478 78.0854C292.215 82.7806 294.905 89.1567 294.964 95.8258C295.022 102.495 292.445 108.918 287.791 113.695C283.138 118.473 276.786 121.22 270.117 121.337ZM270.117 73.9366C264.29 74.0371 258.738 76.4354 254.671 80.6096C250.603 84.7837 248.349 90.3957 248.399 96.2238C248.449 102.052 250.8 107.624 254.939 111.727C259.078 115.831 264.67 118.133 270.498 118.133C276.327 118.133 281.919 115.831 286.058 111.727C290.197 107.624 292.547 102.052 292.597 96.2238C292.648 90.3957 290.394 84.7837 286.326 80.6096C282.259 76.4354 276.707 74.0371 270.879 73.9366H270.117Z" fill="#EBEBEB"/>
<path d="M307.586 40.3655L301.826 38.8253L300.286 33.0657L302.54 30.8196L304.915 35.7369L309.84 38.1194L307.586 40.3655Z" fill="#E0E0E0"/>
<path d="M307.94 36.515C308.189 36.2659 308.387 35.9701 308.521 35.6446C308.656 35.3191 308.726 34.9702 308.726 34.6179C308.726 34.2656 308.656 33.9167 308.521 33.5912C308.387 33.2656 308.189 32.9699 307.94 32.7207C307.691 32.4716 307.395 32.274 307.069 32.1392C306.744 32.0043 306.395 31.9349 306.043 31.9349C305.69 31.9349 305.341 32.0043 305.016 32.1392C304.69 32.274 304.395 32.4716 304.146 32.7207L307.009 28.4211L310.844 30.3623L311.686 34.3732L307.94 36.515Z" fill="#E0E0E0"/>
<path d="M302.083 31.2849L306.302 27.0654L312.046 28.5976L313.594 34.3492L309.375 38.5686L303.623 37.0204L302.083 31.2849ZM309.744 34.7342C310.119 34.3583 310.375 33.8795 310.478 33.3583C310.582 32.837 310.529 32.2969 310.325 31.806C310.122 31.3151 309.777 30.8956 309.335 30.6004C308.893 30.3052 308.374 30.1477 307.843 30.1477C307.311 30.1477 306.792 30.3052 306.35 30.6004C305.908 30.8956 305.564 31.3151 305.36 31.806C305.157 32.2969 305.103 32.837 305.207 33.3583C305.31 33.8795 305.566 34.3583 305.941 34.7342C306.45 35.2328 307.134 35.5107 307.846 35.5077C308.558 35.5047 309.24 35.221 309.744 34.7182V34.7342Z" fill="#F0F0F0"/>
<path d="M72.3724 193.894L75.4608 193.06L76.287 189.971L75.0838 188.768L73.8083 191.407L71.1611 192.683L72.3724 193.894Z" fill="#E0E0E0"/>
<path d="M72.1961 191.824C71.9548 191.549 71.8272 191.192 71.8394 190.825C71.8515 190.459 72.0024 190.111 72.2615 189.852C72.5206 189.593 72.8685 189.442 73.2347 189.43C73.6009 189.418 73.958 189.545 74.2337 189.787L72.7015 187.485L70.5918 188.511L70.1426 190.677L72.1961 191.824Z" fill="#E0E0E0"/>
<path d="M75.3246 189.009L73.0624 186.747L69.9741 187.549L69.1719 190.637L71.3939 192.923L74.4823 192.121L75.3246 189.009ZM71.2174 190.862C71.0687 190.732 70.9483 190.572 70.8637 190.394C70.7791 190.215 70.732 190.021 70.7255 189.823C70.7189 189.626 70.753 189.429 70.8256 189.245C70.8982 189.061 71.0078 188.894 71.1476 188.754C71.2874 188.615 71.4543 188.505 71.6382 188.432C71.822 188.36 72.0189 188.326 72.2164 188.332C72.414 188.339 72.6081 188.386 72.7867 188.47C72.9654 188.555 73.1247 188.676 73.2549 188.824C73.4963 189.1 73.6238 189.457 73.6117 189.823C73.5996 190.189 73.4487 190.537 73.1896 190.796C72.9305 191.055 72.5826 191.206 72.2164 191.219C71.8502 191.231 71.4931 191.103 71.2174 190.862Z" fill="#F0F0F0"/>
<path d="M61.2539 24.5948L63.8209 27.1617C64.1419 27.4772 64.574 27.654 65.0241 27.654C65.4742 27.654 65.9064 27.4772 66.2274 27.1617C66.541 26.8397 66.7165 26.4079 66.7165 25.9585C66.7165 25.509 66.541 25.0772 66.2274 24.7552L63.6685 22.1962C63.3464 21.8826 62.9147 21.7072 62.4652 21.7072C62.0157 21.7072 61.584 21.8826 61.2619 22.1962C60.9478 22.5159 60.771 22.9457 60.7695 23.3939C60.768 23.842 60.9419 24.273 61.2539 24.5948Z" fill="#F0F0F0"/>
<path d="M59.4491 18.2174C60.1189 18.0311 60.8286 18.0445 61.4909 18.256C62.1532 18.4674 62.7394 18.8676 63.1774 19.4075C63.6155 19.9474 63.8864 20.6034 63.9568 21.2951C64.0272 21.9868 63.894 22.684 63.5738 23.3011C63.2535 23.9181 62.76 24.4283 62.1538 24.7688C61.5477 25.1093 60.8553 25.2654 60.1616 25.218C59.468 25.1705 58.8033 24.9215 58.2492 24.5015C57.6952 24.0816 57.2758 23.509 57.0426 22.854C56.8945 22.3916 56.8394 21.9045 56.8803 21.4207C56.9213 20.9369 57.0575 20.4659 57.2812 20.035C57.5048 19.6041 57.8115 19.2216 58.1836 18.9097C58.5556 18.5977 58.9857 18.3625 59.4491 18.2174Z" fill="#E0E0E0"/>
<path d="M56.6568 22.4245L57.0283 23.4588L64.6532 20.7197L64.2817 19.6854L56.6568 22.4245Z" fill="#F0F0F0"/>
<path d="M200.545 242.706C286.444 242.706 356.079 238.641 356.079 233.626C356.079 228.611 286.444 224.545 200.545 224.545C114.646 224.545 45.0107 228.611 45.0107 233.626C45.0107 238.641 114.646 242.706 200.545 242.706Z" fill="#F5F5F5"/>
<path d="M178.444 144.263C179.559 126.295 177.514 93.6219 211.293 97.9537C247.496 102.582 237.14 144.921 237.14 144.921L178.444 144.263Z" fill="#FFB8B8"/>
<path d="M201.755 133.466C209.898 133.466 216.499 126.865 216.499 118.722C216.499 110.579 209.898 103.978 201.755 103.978C193.612 103.978 187.011 110.579 187.011 118.722C187.011 126.865 193.612 133.466 201.755 133.466Z" fill="white"/>
<path opacity="0.3" d="M203.697 104.002C196.71 102.815 189.258 107.957 188.512 113.171L216.195 115.722C215.216 109.778 209.232 104.949 203.697 104.002Z" fill="#263238"/>
<path d="M213.042 118.353C212.841 122.212 210.74 125.236 208.349 125.107C205.959 124.979 204.178 121.762 204.338 117.888C204.499 114.013 206.64 111.005 209.031 111.133C211.421 111.262 213.234 114.503 213.042 118.353Z" fill="#263238"/>
<path d="M201.755 134.268C198.68 134.268 195.675 133.356 193.118 131.648C190.562 129.94 188.569 127.512 187.392 124.671C186.216 121.831 185.908 118.705 186.508 115.689C187.108 112.673 188.588 109.903 190.762 107.729C192.937 105.555 195.707 104.074 198.722 103.475C201.738 102.875 204.864 103.183 207.704 104.359C210.545 105.536 212.973 107.528 214.681 110.085C216.39 112.642 217.301 115.647 217.301 118.722C217.297 122.844 215.658 126.796 212.743 129.71C209.829 132.625 205.877 134.264 201.755 134.268ZM201.755 104.788C198.997 104.788 196.302 105.606 194.009 107.138C191.716 108.671 189.929 110.849 188.874 113.397C187.819 115.945 187.543 118.748 188.082 121.453C188.62 124.158 189.949 126.642 191.9 128.591C193.85 130.541 196.335 131.868 199.04 132.405C201.745 132.942 204.549 132.665 207.096 131.608C209.643 130.552 211.82 128.764 213.351 126.47C214.882 124.176 215.699 121.48 215.697 118.722C215.693 115.026 214.222 111.484 211.608 108.871C208.994 106.259 205.451 104.79 201.755 104.788Z" fill="#FF0000"/>
<path opacity="0.3" d="M233.024 143.814H232.927C232.876 143.803 232.827 143.781 232.784 143.751C232.741 143.72 232.704 143.681 232.677 143.636C232.649 143.592 232.631 143.541 232.623 143.489C232.615 143.437 232.617 143.384 232.63 143.333C232.63 143.228 235.213 132.351 232.558 121.353C232.533 121.247 232.551 121.135 232.608 121.041C232.665 120.948 232.757 120.881 232.863 120.856C232.969 120.83 233.082 120.848 233.175 120.905C233.268 120.962 233.335 121.054 233.36 121.161C236.064 132.391 233.457 143.413 233.433 143.517C233.409 143.606 233.355 143.684 233.281 143.738C233.206 143.792 233.115 143.819 233.024 143.814Z" fill="white"/>
<path opacity="0.3" d="M230.786 115.321C230.709 115.32 230.634 115.298 230.569 115.257C230.504 115.216 230.451 115.157 230.417 115.088C229.42 112.884 228.142 110.819 226.615 108.944C226.548 108.861 226.517 108.756 226.527 108.651C226.538 108.546 226.589 108.449 226.671 108.382C226.712 108.348 226.759 108.322 226.81 108.306C226.861 108.291 226.914 108.285 226.967 108.291C227.02 108.296 227.072 108.312 227.119 108.337C227.166 108.362 227.207 108.397 227.24 108.438C228.805 110.368 230.118 112.49 231.147 114.751C231.17 114.799 231.183 114.85 231.186 114.902C231.188 114.955 231.18 115.007 231.163 115.057C231.145 115.106 231.117 115.151 231.081 115.19C231.045 115.228 231.002 115.259 230.955 115.281C230.902 115.305 230.844 115.319 230.786 115.321Z" fill="white"/>
<path d="M103.264 228.556H102.968C101.904 228.526 100.895 228.075 100.164 227.302C99.4332 226.529 99.0392 225.497 99.069 224.433C99.0987 223.369 99.5499 222.361 100.323 221.63C101.096 220.898 102.128 220.504 103.192 220.534H103.264C105.583 220.534 111.158 217.719 122.821 199.333C123.131 198.844 123.543 198.429 124.028 198.114C124.513 197.8 125.06 197.594 125.633 197.511C126.205 197.428 126.788 197.47 127.343 197.633C127.897 197.797 128.41 198.078 128.846 198.458C138.005 206.332 147.995 213.186 158.639 218.898C159.131 219.122 159.573 219.443 159.938 219.843C160.303 220.242 160.584 220.711 160.763 221.222C160.942 221.732 161.016 222.274 160.98 222.814C160.944 223.354 160.8 223.881 160.555 224.363C160.31 224.846 159.97 225.274 159.556 225.622C159.141 225.969 158.66 226.23 158.143 226.387C157.625 226.544 157.081 226.595 156.543 226.536C156.005 226.477 155.484 226.31 155.013 226.045C145.121 220.789 135.771 214.571 127.097 207.483C117.318 222.203 110.067 228.556 103.264 228.556Z" fill="#FFB8B8"/>
<path d="M128.084 197.736H127.739C127.108 197.645 126.54 197.307 126.158 196.798C125.776 196.288 125.612 195.648 125.701 195.017C126.271 191.006 125.565 176.062 120.503 164.43C120.278 163.916 120.241 163.34 120.396 162.801C120.551 162.262 120.89 161.794 121.353 161.478C132.343 153.994 155.751 153.095 156.745 153.063C157.061 153.053 157.376 153.104 157.672 153.216C157.968 153.327 158.24 153.495 158.47 153.711C158.701 153.927 158.887 154.187 159.018 154.475C159.149 154.763 159.221 155.073 159.232 155.389C159.243 155.706 159.191 156.021 159.08 156.317C158.968 156.613 158.8 156.884 158.584 157.115C158.368 157.346 158.108 157.532 157.821 157.662C157.533 157.793 157.222 157.866 156.906 157.876C156.689 157.876 136.226 158.678 125.717 164.454C130.193 176.037 131.212 190.469 130.466 195.691C130.38 196.261 130.092 196.78 129.654 197.156C129.217 197.531 128.66 197.737 128.084 197.736Z" fill="#FFB8B8"/>
<path d="M132.126 194.624C130.522 190.846 123.302 191.271 119.075 194.512C116.813 196.236 113.748 201.442 113.459 203.336C113.363 203.785 113.378 204.252 113.501 204.695C113.625 205.138 113.855 205.544 114.171 205.879C114.486 206.213 114.879 206.466 115.314 206.616C115.749 206.765 116.213 206.807 116.668 206.737C119.436 206.496 123.23 202.477 123.23 202.477C120.703 204.956 123.968 206.705 128.845 203.119C131.508 201.122 133.915 198.851 132.126 194.624Z" fill="#FF0000"/>
<path d="M270.101 145.322C270.064 145.33 270.026 145.33 269.989 145.322C269.938 145.308 269.89 145.284 269.848 145.252C269.807 145.219 269.772 145.178 269.747 145.132C269.721 145.085 269.705 145.034 269.7 144.981C269.695 144.929 269.7 144.875 269.716 144.825C270.783 141.103 271.946 138.833 273.479 137.605C273.238 136.743 273.283 135.825 273.607 134.99C273.981 134.015 274.641 133.176 275.5 132.584C275.266 132.331 275.1 132.024 275.018 131.69C274.935 131.356 274.938 131.007 275.027 130.674C275.317 129.67 275.918 128.782 276.743 128.14C276.446 127.807 276.283 127.375 276.286 126.928C276.286 124.522 280.706 120.896 285.72 120.206C285.826 120.191 285.934 120.219 286.02 120.284C286.106 120.349 286.162 120.445 286.177 120.551C286.192 120.657 286.164 120.765 286.099 120.851C286.035 120.937 285.938 120.993 285.832 121.008C281.067 121.658 277.072 125.107 277.088 126.928C277.087 127.2 277.19 127.461 277.377 127.658C278.456 126.927 279.67 126.417 280.948 126.159C282.226 125.902 283.543 125.901 284.821 126.158C287.284 126.631 288.287 127.153 288.174 127.899C287.95 129.303 282.712 129.6 279.198 129.182C278.569 129.125 277.956 128.948 277.393 128.661C276.637 129.199 276.074 129.967 275.789 130.851C275.72 131.085 275.721 131.333 275.79 131.567C275.86 131.8 275.996 132.009 276.182 132.167C277.674 131.364 279.768 131.076 282.535 131.685C286.169 132.487 286.305 132.929 286.394 133.193C286.422 133.287 286.424 133.386 286.4 133.481C286.376 133.576 286.327 133.662 286.257 133.731C285.495 134.533 279.92 134.156 277.12 133.466C276.782 133.389 276.456 133.268 276.15 133.105C275.321 133.609 274.683 134.373 274.337 135.279C274.105 135.865 274.041 136.504 274.152 137.124C274.295 137.039 274.442 136.961 274.594 136.891C276.254 136.089 278.259 136.234 280.738 137.292C282.343 137.99 283.145 138.616 283.225 139.25C283.228 139.412 283.188 139.573 283.107 139.714C283.027 139.855 282.909 139.972 282.768 140.052C281.54 140.854 277.257 140.742 275.027 139.555C274.514 139.276 274.087 138.863 273.791 138.359C272.484 139.563 271.425 141.704 270.462 145.065C270.433 145.138 270.384 145.201 270.32 145.247C270.256 145.292 270.18 145.319 270.101 145.322ZM274.449 137.838C274.673 138.253 275.013 138.593 275.428 138.817C277.241 139.779 280.802 139.996 282.134 139.458C282.407 139.346 282.447 139.258 282.447 139.258C282.447 139.258 282.407 138.809 280.441 137.966C278.195 137.004 276.431 136.867 274.963 137.549C274.785 137.634 274.614 137.731 274.449 137.838ZM277.128 132.568L277.329 132.624C279.941 133.226 282.63 133.429 285.303 133.225C284.354 132.874 283.377 132.605 282.383 132.423C280.655 131.955 278.828 132.005 277.128 132.568ZM278.139 128.059C278.509 128.192 278.895 128.278 279.286 128.316C283.297 128.789 286.819 128.236 287.308 127.73C287.172 127.61 286.634 127.265 284.645 126.888C282.406 126.442 280.082 126.86 278.139 128.059Z" fill="#263238"/>
<path d="M165.673 227.216C166.203 227.048 166.026 226.535 165.433 226.535H154.571C133.891 224.345 119.444 227.281 128.549 227.97C137.653 228.66 127.907 228.516 121.257 231.035C114.607 233.554 170.711 234.187 175.805 231.035C180.489 228.131 158.341 229.567 165.673 227.216Z" fill="#FFB8B8"/>
<path d="M243.437 230.417L148.94 227.28L145.018 135.656L256.608 138.151L243.437 230.417Z" fill="#FF0000"/>
<path d="M243.436 230.417L268.832 226.551L276.83 141.351L256.607 138.151L243.436 230.417Z" fill="#FF0000"/>
<path opacity="0.2" d="M243.436 230.417L268.832 226.551L276.83 141.351L256.607 138.151L243.436 230.417Z" fill="black"/>
<path d="M157.01 209.625L154.684 155.181C154.626 153.836 154.845 152.494 155.328 151.237C155.81 149.98 156.544 148.835 157.487 147.873C158.429 146.912 159.558 146.154 160.805 145.646C162.051 145.138 163.389 144.891 164.735 144.921L235.375 146.525C236.766 146.557 238.134 146.883 239.39 147.482C240.646 148.081 241.76 148.939 242.66 150C243.56 151.062 244.224 152.302 244.61 153.638C244.995 154.975 245.093 156.379 244.896 157.756L237.067 212.577C236.728 214.978 235.515 217.169 233.661 218.731C231.806 220.293 229.44 221.115 227.016 221.04L166.54 219.034C164.057 218.958 161.695 217.945 159.928 216.2C158.16 214.455 157.118 212.106 157.01 209.625Z" fill="#FFB8B8"/>
<path d="M164.646 161.63L175.571 161.975L175.483 164.791L168.641 164.574L168.577 166.676L174.922 166.877L174.833 169.572L168.488 169.363L168.408 171.97L175.443 172.195L175.347 175.179L164.221 174.826L164.646 161.63Z" fill="white"/>
<path d="M177.602 175.251L178.019 162.056L184.821 162.272C185.796 162.267 186.767 162.408 187.701 162.689C188.363 162.911 188.929 163.353 189.305 163.941C189.584 164.369 189.772 164.85 189.856 165.354C189.941 165.858 189.921 166.374 189.798 166.87C189.674 167.366 189.45 167.831 189.139 168.237C188.828 168.642 188.437 168.979 187.99 169.227C187.534 169.462 187.044 169.624 186.538 169.708C186.911 169.828 187.265 170.001 187.589 170.222C187.823 170.439 188.032 170.681 188.214 170.944C188.421 171.193 188.604 171.462 188.76 171.746L190.613 175.636L186.008 175.484L183.955 171.385C183.792 170.993 183.552 170.639 183.249 170.342C182.961 170.134 182.617 170.016 182.262 170.005H181.901L181.733 175.356L177.602 175.251ZM181.949 167.534L183.666 167.591C184.03 167.568 184.393 167.517 184.749 167.438C185.017 167.397 185.261 167.257 185.431 167.045C185.604 166.831 185.703 166.566 185.712 166.291C185.727 166.108 185.701 165.923 185.636 165.751C185.57 165.579 185.468 165.424 185.335 165.296C184.887 165.007 184.358 164.869 183.826 164.903L182.03 164.847L181.949 167.534Z" fill="white"/>
<path d="M191.944 175.677L192.361 162.481L199.156 162.697C200.131 162.692 201.102 162.832 202.036 163.114C202.699 163.334 203.266 163.776 203.64 164.366C204.047 165.009 204.238 165.765 204.186 166.524C204.188 167.164 204.017 167.793 203.691 168.344C203.364 168.894 202.895 169.347 202.333 169.652C201.876 169.886 201.386 170.048 200.881 170.133C201.251 170.253 201.603 170.426 201.923 170.647C202.163 170.858 202.376 171.098 202.557 171.361C202.762 171.612 202.945 171.88 203.103 172.163L204.956 176.046L200.351 175.901L198.298 171.802C198.133 171.411 197.894 171.057 197.592 170.759C197.305 170.543 196.956 170.425 196.597 170.422H196.244L196.068 175.781L191.944 175.677ZM196.284 167.96L198.009 168.008C198.374 167.994 198.736 167.946 199.092 167.863C199.358 167.824 199.6 167.683 199.766 167.47C199.945 167.26 200.045 166.993 200.046 166.716C200.064 166.533 200.04 166.349 199.976 166.177C199.912 166.004 199.81 165.849 199.677 165.722C199.23 165.425 198.696 165.287 198.161 165.328L196.372 165.272L196.284 167.96Z" fill="white"/>
<path d="M205.615 169.548C205.553 168.627 205.695 167.704 206.033 166.845C206.37 165.986 206.893 165.212 207.565 164.579C208.237 163.947 209.041 163.471 209.918 163.185C210.796 162.9 211.726 162.813 212.642 162.93C213.565 162.899 214.486 163.055 215.349 163.387C216.211 163.719 216.998 164.221 217.663 164.863C218.257 165.546 218.705 166.343 218.981 167.205C219.256 168.067 219.354 168.976 219.268 169.877C219.274 171.187 218.966 172.48 218.369 173.647C217.828 174.602 217.019 175.377 216.043 175.877C214.892 176.427 213.618 176.671 212.345 176.583C211.076 176.594 209.82 176.32 208.671 175.781C207.692 175.25 206.894 174.44 206.377 173.455C205.77 172.247 205.506 170.895 205.615 169.548ZM209.69 169.692C209.569 170.703 209.798 171.725 210.339 172.588C210.592 172.87 210.899 173.099 211.243 173.26C211.586 173.421 211.958 173.511 212.336 173.526C212.715 173.54 213.093 173.478 213.447 173.343C213.801 173.208 214.125 173.003 214.398 172.741C214.993 171.84 215.275 170.769 215.2 169.692C215.308 168.725 215.072 167.751 214.535 166.941C214.292 166.661 213.991 166.436 213.653 166.282C213.315 166.129 212.948 166.05 212.577 166.05C212.203 166.023 211.827 166.082 211.479 166.221C211.13 166.36 210.817 166.576 210.564 166.853C209.956 167.671 209.648 168.674 209.69 169.692Z" fill="white"/>
<path d="M221.328 176.647L221.745 163.443L228.54 163.66C229.515 163.658 230.485 163.799 231.419 164.077C232.08 164.302 232.645 164.743 233.024 165.328C233.429 165.972 233.62 166.727 233.569 167.486C233.573 168.128 233.403 168.758 233.076 169.311C232.75 169.863 232.28 170.317 231.716 170.623C231.258 170.85 230.769 171.009 230.264 171.096C230.636 171.218 230.987 171.394 231.307 171.617C231.547 171.828 231.76 172.068 231.941 172.331C232.148 172.581 232.33 172.85 232.486 173.134L234.339 177.024L229.735 176.88L227.681 172.773C227.518 172.384 227.278 172.032 226.975 171.738C226.688 171.522 226.34 171.402 225.981 171.393H225.628L225.451 176.751L221.328 176.647ZM225.668 168.922L227.393 168.978C227.757 168.964 228.12 168.916 228.476 168.834C228.741 168.791 228.981 168.651 229.149 168.441C229.339 168.217 229.439 167.932 229.43 167.639C229.447 167.457 229.423 167.274 229.359 167.103C229.295 166.932 229.193 166.778 229.061 166.652C228.614 166.356 228.08 166.217 227.545 166.259L225.756 166.203L225.668 168.922Z" fill="white"/>
<path d="M227.818 199.068C227.667 199.071 227.518 199.041 227.379 198.982C227.241 198.923 227.117 198.834 227.016 198.723L220.149 191.207L212.737 197.977C212.531 198.165 212.26 198.264 211.982 198.252C211.703 198.24 211.441 198.118 211.253 197.913L204.386 190.396L196.974 197.167C196.769 197.355 196.497 197.454 196.219 197.442C195.94 197.43 195.678 197.308 195.49 197.103L188.615 189.586L181.211 196.357C181.103 196.454 180.976 196.529 180.838 196.576C180.7 196.623 180.554 196.641 180.409 196.629C180.13 196.613 179.869 196.489 179.679 196.284L172.812 188.776L165.408 195.538C165.202 195.727 164.929 195.826 164.649 195.814C164.37 195.802 164.106 195.68 163.916 195.474C163.823 195.372 163.75 195.253 163.703 195.123C163.656 194.993 163.635 194.855 163.642 194.717C163.649 194.579 163.683 194.444 163.742 194.319C163.802 194.194 163.885 194.082 163.989 193.99L172.171 186.506C172.377 186.317 172.65 186.218 172.93 186.23C173.21 186.242 173.473 186.364 173.663 186.57L180.529 194.086L187.934 187.316C188.144 187.132 188.416 187.034 188.696 187.043C188.975 187.058 189.237 187.182 189.426 187.388L196.292 194.905L203.704 188.134C203.805 188.04 203.924 187.967 204.054 187.919C204.184 187.871 204.322 187.85 204.46 187.856C204.598 187.862 204.733 187.895 204.858 187.954C204.983 188.013 205.096 188.096 205.188 188.198L212.055 195.715L219.467 188.944C219.672 188.756 219.944 188.657 220.222 188.669C220.501 188.681 220.763 188.803 220.951 189.009L228.62 197.335C228.757 197.488 228.846 197.678 228.877 197.881C228.908 198.084 228.88 198.292 228.795 198.479C228.71 198.667 228.572 198.825 228.399 198.935C228.225 199.045 228.023 199.103 227.818 199.1V199.068Z" fill="white"/>
<path d="M100.874 232.366L95.8521 229.968L91.376 208.173L93.8066 205.501L100.874 232.366Z" fill="#FF0000"/>
<path d="M100.874 232.366L107.54 228.468L101.828 210.515L93.8066 205.501L100.874 232.366Z" fill="#FF0000"/>
<path opacity="0.2" d="M100.874 232.366L107.54 228.468L101.828 210.515L93.8066 205.501L100.874 232.366Z" fill="black"/>
<path d="M210.17 236.329H209.617C208.553 236.3 207.544 235.85 206.813 235.078C206.081 234.305 205.686 233.274 205.714 232.21C205.743 231.146 206.193 230.137 206.966 229.405C207.738 228.674 208.77 228.279 209.834 228.307C216.01 228.508 229.086 224.714 236.562 217.462C237.013 217.019 237.563 216.689 238.166 216.499C250.833 212.697 255.542 220.374 255.734 220.703L248.835 224.786C248.86 224.837 248.889 224.885 248.924 224.93C248.851 224.826 247.054 222.524 241.343 223.935C231.966 232.487 217.575 236.329 210.17 236.329Z" fill="#FFB8B8"/>
<path d="M209.681 241.656L195.073 240.741L193.926 213.804L213.555 214.534L209.681 241.656Z" fill="#FF0000"/>
<path d="M209.682 241.656L213.099 238.254L215.217 221.465L213.556 214.534L209.682 241.656Z" fill="#FF0000"/>
<path opacity="0.2" d="M209.682 241.656L213.099 238.254L215.217 221.465L213.556 214.534L209.682 241.656Z" fill="black"/>
<path d="M294.326 231.46C293.802 231.459 293.292 231.287 292.874 230.971C284.532 224.633 273.261 213.379 268.938 202.525C268.873 202.368 268.827 202.204 268.801 202.036C266.691 189.49 264.678 163.09 264.59 161.975C264.566 161.659 264.605 161.342 264.704 161.041C264.803 160.74 264.96 160.461 265.167 160.221C265.584 159.736 266.178 159.436 266.816 159.388C267.454 159.34 268.085 159.548 268.57 159.966C269.055 160.383 269.355 160.976 269.403 161.614C269.403 161.879 271.464 188.535 273.518 200.977C277.834 211.534 289.562 222.371 295.802 227.136C296.204 227.441 296.5 227.864 296.648 228.347C296.796 228.829 296.789 229.345 296.628 229.823C296.467 230.301 296.159 230.716 295.749 231.01C295.339 231.304 294.847 231.461 294.342 231.46H294.326Z" fill="#FFB8B8"/>
<path d="M305.453 232.671C303.592 232.671 301.482 231.829 299.18 230.168C298.663 229.794 298.316 229.229 298.215 228.599C298.114 227.969 298.268 227.324 298.642 226.807C299.017 226.29 299.581 225.943 300.211 225.842C300.842 225.742 301.486 225.895 302.003 226.27C303.993 227.706 305.076 227.874 305.453 227.874C306.091 227.874 306.703 228.128 307.154 228.579C307.606 229.03 307.859 229.642 307.859 230.281C307.859 230.919 307.606 231.531 307.154 231.982C306.703 232.434 306.091 232.687 305.453 232.687V232.671Z" fill="#FFB8B8"/>
<path d="M299.854 230.096C302.429 222.451 312.986 223.959 316.627 225.099C319.738 226.002 322.722 227.295 325.507 228.949C327.473 230.232 327.505 232.39 324.882 233.618C321.673 235.126 313.523 233.786 313.523 233.786C317.726 235.623 313.523 238.599 306.135 235.679C303.736 234.733 298.947 232.904 299.854 230.096Z" fill="#FF0000"/>
<path d="M274.232 165.248C273.277 171.746 267.895 176.535 263.515 175.893C259.135 175.251 258.959 169.476 259.913 162.946C260.868 156.416 262.6 151.716 266.98 152.357C271.36 152.999 275.187 158.775 274.232 165.248Z" fill="#FFB8B8"/>
<path d="M168.361 139.338C168.724 139.338 169.019 139.043 169.019 138.68C169.019 138.317 168.724 138.022 168.361 138.022C167.998 138.022 167.703 138.317 167.703 138.68C167.703 139.043 167.998 139.338 168.361 139.338Z" fill="#FFB8B8"/>
<path d="M175.043 143.413C175.043 143.543 175.005 143.67 174.932 143.778C174.86 143.887 174.757 143.971 174.637 144.021C174.517 144.071 174.385 144.084 174.257 144.058C174.129 144.033 174.012 143.97 173.92 143.878C173.828 143.786 173.766 143.669 173.74 143.541C173.715 143.414 173.728 143.282 173.778 143.161C173.827 143.041 173.912 142.938 174.02 142.866C174.128 142.794 174.255 142.755 174.385 142.755C174.56 142.755 174.727 142.825 174.85 142.948C174.974 143.071 175.043 143.239 175.043 143.413Z" fill="#FFB8B8"/>
<path d="M175.78 221.144C175.78 221.274 175.742 221.401 175.67 221.509C175.597 221.617 175.495 221.702 175.374 221.752C175.254 221.801 175.122 221.814 174.994 221.789C174.867 221.764 174.75 221.701 174.658 221.609C174.566 221.517 174.503 221.4 174.477 221.272C174.452 221.145 174.465 221.012 174.515 220.892C174.565 220.772 174.649 220.669 174.757 220.597C174.865 220.525 174.993 220.486 175.123 220.486C175.297 220.486 175.464 220.555 175.588 220.679C175.711 220.802 175.78 220.969 175.78 221.144Z" fill="#FFB8B8"/>
<path d="M181.805 225.885C181.805 226.015 181.766 226.142 181.694 226.25C181.622 226.358 181.519 226.443 181.399 226.492C181.279 226.542 181.146 226.555 181.019 226.53C180.891 226.504 180.774 226.442 180.682 226.35C180.59 226.258 180.527 226.141 180.502 226.013C180.477 225.885 180.49 225.753 180.539 225.633C180.589 225.513 180.673 225.41 180.782 225.338C180.89 225.266 181.017 225.227 181.147 225.227C181.321 225.227 181.489 225.296 181.612 225.42C181.736 225.543 181.805 225.71 181.805 225.885Z" fill="#FFB8B8"/>
<path d="M66.1867 233.77C65.0319 233.716 63.9039 233.404 62.8861 232.855C61.8684 232.307 60.9869 231.537 60.3067 230.602C60.2734 230.559 60.2492 230.509 60.2355 230.457C60.2218 230.404 60.219 230.349 60.2273 230.295C60.2355 230.241 60.2546 230.19 60.2834 230.144C60.3122 230.098 60.3501 230.058 60.3948 230.027C60.4395 229.996 60.49 229.974 60.5434 229.963C60.5967 229.952 60.6517 229.952 60.705 229.963C60.7583 229.974 60.8088 229.996 60.8534 230.027C60.898 230.058 60.9358 230.098 60.9645 230.144C62.4646 232.31 65.7776 233.457 67.2215 232.776C67.3661 232.714 67.495 232.621 67.5985 232.503C66.8689 232.182 66.2297 231.686 65.7372 231.059C65.2447 230.432 64.9142 229.694 64.7749 228.909C64.5904 227.89 64.446 226.503 65.2802 226.326C66.4354 226.069 67.9435 228.853 68.4889 230.963C68.5877 231.312 68.6231 231.676 68.5932 232.038C69.0559 232.176 69.5426 232.214 70.0211 232.15C70.2367 232.133 70.4466 232.072 70.6372 231.97C70.8278 231.868 70.995 231.727 71.1281 231.556C70.6002 231.158 70.1622 230.653 69.8429 230.073C69.5236 229.494 69.3301 228.854 69.2751 228.195C68.9703 225.997 69.2029 225.62 69.4435 225.428C69.5215 225.368 69.6146 225.331 69.7123 225.321C69.8101 225.311 69.9087 225.329 69.997 225.372C70.8554 225.733 71.8902 228.845 72.0907 230.61C72.1147 230.793 72.1147 230.98 72.0907 231.163C72.4365 231.296 72.8032 231.367 73.1737 231.372C73.8539 231.398 74.5266 231.222 75.1069 230.866C74.9946 230.794 74.8903 230.714 74.786 230.634C73.9839 229.92 73.6148 228.781 73.7592 227.16C73.8715 225.901 74.1523 225.211 74.6577 224.995C74.8207 224.929 74.9993 224.912 75.1716 224.947C75.3439 224.981 75.5026 225.064 75.6283 225.187C76.1698 225.785 76.5745 226.494 76.8142 227.264C77.0538 228.034 77.1227 228.848 77.0161 229.647C76.9464 229.98 76.807 230.295 76.607 230.57C78.083 230.826 80.1526 230.409 81.9414 229.968C81.9941 229.955 82.0488 229.953 82.1023 229.962C82.1558 229.97 82.2071 229.989 82.2532 230.017C82.2994 230.046 82.3396 230.083 82.3714 230.127C82.4033 230.171 82.4261 230.22 82.4388 230.273C82.4514 230.326 82.4536 230.38 82.4451 230.434C82.4366 230.487 82.4177 230.538 82.3894 230.585C82.3611 230.631 82.3239 230.671 82.2801 230.703C82.2363 230.735 82.1866 230.758 82.134 230.77C79.9601 231.308 77.6177 231.749 75.9652 231.268C75.1586 231.881 74.1708 232.208 73.1576 232.198C72.708 232.192 72.2628 232.108 71.842 231.949C71.6554 232.238 71.405 232.48 71.1102 232.657C70.8154 232.833 70.4839 232.94 70.1414 232.968C69.5384 233.046 68.9259 232.994 68.3446 232.816C68.1574 233.131 67.8771 233.38 67.5424 233.53C67.1121 233.703 66.6504 233.785 66.1867 233.77ZM65.4968 227.128C65.3859 227.674 65.4079 228.238 65.561 228.773C65.6742 229.414 65.9403 230.019 66.3369 230.536C66.7335 231.052 67.2488 231.466 67.8392 231.741C67.828 231.551 67.7957 231.362 67.7429 231.179C67.1172 228.885 65.914 227.305 65.4968 227.128ZM69.9649 226.43C69.9702 226.984 70.0157 227.536 70.1013 228.083C70.1898 229.061 70.6217 229.976 71.3206 230.666C71.1232 229.185 70.6642 227.751 69.9649 226.43ZM75.0106 225.733C75.0106 225.733 74.7058 225.885 74.5935 227.225C74.4812 228.564 74.7138 229.487 75.3395 230.024C75.4876 230.144 75.6491 230.246 75.8208 230.329C76.0318 230.103 76.181 229.827 76.254 229.527C76.3969 228.264 76.0558 226.994 75.2994 225.973C75.131 225.765 75.0347 225.733 75.0106 225.733Z" fill="#263238"/>
<path d="M183.593 239.835L185.767 236.065L183.593 232.294H181.267L182.582 236.065L181.267 239.835H183.593Z" fill="#263238"/>
<path d="M181.419 238.03C181.151 238.047 180.882 238.009 180.629 237.918C180.376 237.827 180.145 237.686 179.949 237.502C179.753 237.318 179.597 237.096 179.49 236.85C179.383 236.603 179.328 236.337 179.328 236.069C179.328 235.8 179.383 235.534 179.49 235.288C179.597 235.041 179.753 234.819 179.949 234.635C180.145 234.451 180.376 234.31 180.629 234.219C180.882 234.128 181.151 234.09 181.419 234.107L177.729 233.369L176.742 236.353L178.395 238.872L181.419 238.03Z" fill="#263238"/>
<path d="M181.74 232.294H177.384L175.21 236.065L177.384 239.835H181.74L183.914 236.065L181.74 232.294ZM179.566 238.03C179.177 238.031 178.796 237.918 178.472 237.703C178.147 237.488 177.894 237.181 177.744 236.822C177.594 236.463 177.554 236.068 177.629 235.686C177.704 235.304 177.891 234.953 178.165 234.678C178.44 234.402 178.79 234.214 179.171 234.138C179.553 234.061 179.948 234.1 180.308 234.248C180.668 234.397 180.975 234.648 181.191 234.972C181.408 235.295 181.523 235.676 181.523 236.065C181.523 236.584 181.317 237.083 180.95 237.451C180.583 237.82 180.086 238.028 179.566 238.03Z" fill="#FF4040"/>
<path d="M335.221 232.038L333.608 229.238L335.221 226.438H336.945L335.975 229.238L336.945 232.038H335.221Z" fill="#FF4040"/>
<path d="M336.833 230.698C337.033 230.713 337.235 230.686 337.424 230.62C337.614 230.553 337.787 230.449 337.935 230.312C338.082 230.175 338.199 230.01 338.279 229.826C338.36 229.642 338.401 229.443 338.401 229.242C338.401 229.041 338.36 228.843 338.279 228.658C338.199 228.474 338.082 228.309 337.935 228.172C337.787 228.035 337.614 227.931 337.424 227.864C337.235 227.798 337.033 227.771 336.833 227.786L339.576 227.241L340.306 229.455L339.087 231.324L336.833 230.698Z" fill="#FF4040"/>
<path d="M336.6 226.438H339.809L341.414 229.238L339.809 232.038H336.6L334.996 229.238L336.6 226.438ZM338.205 230.698C338.494 230.7 338.777 230.615 339.018 230.456C339.259 230.296 339.448 230.069 339.559 229.802C339.671 229.536 339.701 229.242 339.646 228.958C339.59 228.674 339.452 228.414 339.248 228.209C339.044 228.004 338.784 227.864 338.501 227.807C338.217 227.75 337.923 227.778 337.656 227.888C337.389 227.999 337.16 228.186 336.999 228.426C336.839 228.666 336.753 228.949 336.753 229.238C336.752 229.43 336.789 229.62 336.862 229.798C336.935 229.976 337.042 230.137 337.178 230.273C337.314 230.409 337.475 230.516 337.653 230.589C337.83 230.662 338.021 230.699 338.213 230.698H338.205Z" fill="#263238"/>
<path d="M275.145 235.76H278.771C279.225 235.758 279.66 235.576 279.98 235.254C280.3 234.932 280.48 234.497 280.48 234.043C280.48 233.589 280.3 233.154 279.98 232.832C279.66 232.51 279.225 232.329 278.771 232.326H275.145C274.69 232.326 274.253 232.507 273.932 232.829C273.61 233.151 273.429 233.588 273.429 234.043C273.429 234.498 273.61 234.935 273.932 235.257C274.253 235.579 274.69 235.76 275.145 235.76Z" fill="#FFB8B8"/>
<path d="M269.313 232.519C269.649 231.907 270.158 231.407 270.775 231.08C271.392 230.754 272.092 230.615 272.787 230.681C273.482 230.747 274.143 231.015 274.687 231.453C275.232 231.89 275.637 232.477 275.852 233.141C276.067 233.806 276.083 234.518 275.898 235.192C275.712 235.865 275.334 236.47 274.809 236.93C274.285 237.391 273.637 237.689 272.945 237.786C272.253 237.883 271.549 237.775 270.917 237.476C270.05 237.029 269.394 236.257 269.094 235.328C268.793 234.4 268.872 233.39 269.313 232.519Z" fill="#FF4040"/>
</svg>
