<svg width="18" height="20" viewBox="0 0 18 20" fill="none" xmlns="http://www.w3.org/2000/svg">
<path fill-rule="evenodd" clip-rule="evenodd" d="M11.7365 0.7619H5.08449C3.02549 0.7619 1.25049 2.4309 1.25049 4.4909V15.2279C1.25049 17.4039 2.90849 19.1149 5.08449 19.1149H13.0725C15.1325 19.1149 16.8025 17.2879 16.8025 15.2279V6.0379L11.7365 0.7619Z" stroke="#130F26" stroke-width="1.5" stroke-linecap="round" stroke-linejoin="round"/>
<path d="M11.4736 0.7502V3.6592C11.4736 5.0792 12.6226 6.2312 14.0426 6.2342C15.3586 6.2372 16.7056 6.2382 16.7966 6.2322" stroke="#130F26" stroke-width="1.5" stroke-linecap="round" stroke-linejoin="round"/>
<path opacity="0.4" fill-rule="evenodd" clip-rule="evenodd" d="M9.17169 6.91093C9.03094 6.76958 8.83966 6.69012 8.64018 6.69014C8.4407 6.69016 8.24944 6.76965 8.10871 6.91102L5.27071 9.76202C4.97848 10.0556 4.97957 10.5305 5.27313 10.8227C5.56669 11.1149 6.04156 11.1138 6.33379 10.8203L7.89069 9.25623V14.0136C7.89069 14.4278 8.22647 14.7636 8.64069 14.7636C9.0549 14.7636 9.39069 14.4278 9.39069 14.0136V9.25666L10.9478 10.8204C11.2401 11.1139 11.7149 11.1149 12.0085 10.8226C12.302 10.5303 12.303 10.0554 12.0107 9.76193L9.17169 6.91093Z" fill="#130F26"/>
</svg>
