<svg width="20" height="20" viewBox="0 0 20 20" fill="none" xmlns="http://www.w3.org/2000/svg">
<g clip-path="url(#clip0_798_548)">
<path d="M4.16667 3.33334H7.5L9.16667 7.50001L7.08333 8.75001C7.9758 10.5596 9.44039 12.0242 11.25 12.9167L12.5 10.8333L16.6667 12.5V15.8333C16.6667 16.2754 16.4911 16.6993 16.1785 17.0119C15.866 17.3244 15.442 17.5 15 17.5C11.7494 17.3025 8.68346 15.9221 6.38069 13.6193C4.07792 11.3165 2.69754 8.25062 2.5 5.00001C2.5 4.55798 2.67559 4.13406 2.98816 3.8215C3.30072 3.50894 3.72464 3.33334 4.16667 3.33334" stroke="#FF2F2F" stroke-width="1.25" stroke-linecap="round" stroke-linejoin="round"/>
<path d="M12.5 5.83334C12.942 5.83334 13.366 6.00894 13.6785 6.3215C13.9911 6.63406 14.1667 7.05798 14.1667 7.50001" stroke="#FF2F2F" stroke-width="1.25" stroke-linecap="round" stroke-linejoin="round"/>
<path d="M12.5 2.5C13.8261 2.5 15.0979 3.02678 16.0355 3.96447C16.9732 4.90215 17.5 6.17392 17.5 7.5" stroke="#FF2F2F" stroke-width="1.25" stroke-linecap="round" stroke-linejoin="round"/>
</g>
<defs>
<clipPath id="clip0_798_548">
<rect width="20" height="20" fill="white"/>
</clipPath>
</defs>
</svg>
