<svg width="249" height="165" viewBox="0 0 249 165" fill="none" xmlns="http://www.w3.org/2000/svg">
<path d="M6.16016 164.14V8.19043H242.63V164.14H6.16016Z" stroke="#F3F3F3"/>
<path d="M248.91 0H0V7.69H248.91V0Z" fill="#455A64"/>
<path d="M59.45 34.54H21.96V78.97H59.45V34.54Z" fill="#EBEBEB"/>
<path d="M42.0496 37.56C42.0496 37.827 41.9704 38.088 41.8221 38.31C41.6738 38.532 41.4629 38.705 41.2162 38.8072C40.9696 38.9094 40.6981 38.9361 40.4362 38.884C40.1744 38.8319 39.9338 38.7034 39.745 38.5146C39.5562 38.3258 39.4276 38.0852 39.3755 37.8233C39.3235 37.5615 39.3502 37.29 39.4524 37.0433C39.5546 36.7967 39.7276 36.5858 39.9496 36.4375C40.1716 36.2891 40.4326 36.21 40.6996 36.21C41.0577 36.21 41.401 36.3522 41.6542 36.6054C41.9074 36.8585 42.0496 37.2019 42.0496 37.56Z" fill="#455A64"/>
<path d="M29.0898 43.4397C32.8798 43.1497 36.6698 43.1297 40.4598 43.0897C44.2498 43.0497 48.0498 43.0897 51.8398 43.4397C48.0498 43.7297 44.2598 43.7497 40.4598 43.7897C36.6598 43.8297 32.8798 43.7297 29.0898 43.4397Z" fill="#EBEBEB"/>
<path d="M29.0898 46.9496C33.2 46.4829 37.3497 46.4829 41.4598 46.9496C39.4063 47.2008 37.3386 47.3177 35.2698 47.2996C33.2045 47.3127 31.1405 47.1958 29.0898 46.9496Z" fill="#EBEBEB"/>
<path d="M29.0898 50.4604C34.3462 49.9937 39.6335 49.9937 44.8898 50.4604C42.2642 50.7117 39.6274 50.8285 36.9898 50.8104C34.3598 50.8004 31.7198 50.7304 29.0898 50.4604Z" fill="#EBEBEB"/>
<path d="M29.0898 53.97C32.3898 53.7 35.6798 53.63 38.9798 53.62C42.2798 53.61 45.5698 53.69 48.8598 53.97C45.5698 54.25 42.2698 54.31 38.9798 54.32C35.6898 54.33 32.3898 54.25 29.0898 53.97Z" fill="#EBEBEB"/>
<path d="M29.0898 57.4796C31.9498 57.2096 34.8198 57.1396 37.6798 57.1296C40.5398 57.1196 43.3998 57.2096 46.2698 57.4796C43.3998 57.7596 40.5398 57.8196 37.6798 57.8296C34.8198 57.8396 31.9498 57.7596 29.0898 57.4796Z" fill="#EBEBEB"/>
<path d="M29.0898 60.9903C32.7598 60.7003 36.4198 60.6803 40.0898 60.6403C43.7598 60.6003 47.4198 60.7003 51.0898 60.9903C47.4298 61.2903 43.7698 61.3003 40.0898 61.3503C36.4098 61.4003 32.7598 61.2803 29.0898 60.9903Z" fill="#EBEBEB"/>
<path d="M29.0898 64.5004C31.4487 64.2591 33.8187 64.1423 36.1898 64.1504C38.5611 64.1373 40.9313 64.2541 43.2898 64.5004C38.5687 64.9804 33.811 64.9804 29.0898 64.5004Z" fill="#EBEBEB"/>
<path d="M29.0898 68.0198C32.8798 67.7198 36.6698 67.6998 40.4598 67.6598C44.2498 67.6198 48.0498 67.7198 51.8398 68.0198C48.0498 68.3098 44.2598 68.3298 40.4598 68.3698C36.6598 68.4098 32.8798 68.3098 29.0898 68.0198Z" fill="#EBEBEB"/>
<path d="M29.0898 71.5298C32.8798 71.2298 36.6698 71.2198 40.4598 71.1698C44.2498 71.1198 48.0498 71.2298 51.8398 71.5298C48.0498 71.8198 44.2598 71.8398 40.4598 71.8798C36.6598 71.9198 32.8798 71.8198 29.0898 71.5298Z" fill="#EBEBEB"/>
<path d="M78.58 95.5498H34.21V148.12H78.58V95.5498Z" fill="#EBEBEB"/>
<path d="M57.74 102.62C57.74 102.887 57.6609 103.148 57.5125 103.37C57.3642 103.592 57.1533 103.765 56.9067 103.867C56.66 103.969 56.3885 103.996 56.1267 103.944C55.8648 103.892 55.6242 103.763 55.4354 103.574C55.2466 103.385 55.1181 103.145 55.066 102.883C55.0139 102.621 55.0406 102.35 55.1428 102.103C55.245 101.856 55.418 101.645 55.64 101.497C55.862 101.349 56.123 101.27 56.39 101.27C56.5677 101.268 56.7438 101.302 56.9082 101.37C57.0726 101.437 57.222 101.536 57.3476 101.662C57.4732 101.788 57.5726 101.937 57.64 102.101C57.7074 102.266 57.7414 102.442 57.74 102.62Z" fill="#455A64"/>
<path d="M40.46 108.67C43.7234 108.204 47.0366 108.204 50.3 108.67C48.6723 108.921 47.0268 109.038 45.38 109.02C43.7333 109.033 42.0882 108.916 40.46 108.67Z" fill="#EBEBEB"/>
<path d="M40.46 112.62C44.6938 112.153 48.9661 112.153 53.2 112.62C48.9669 113.1 44.6931 113.1 40.46 112.62Z" fill="#EBEBEB"/>
<path d="M40.46 116.62C44.3787 116.14 48.3413 116.14 52.26 116.62C48.3405 117.086 44.3795 117.086 40.46 116.62Z" fill="#EBEBEB"/>
<path d="M40.46 120.56C42.4168 120.314 44.3877 120.197 46.36 120.21C48.3323 120.192 50.3036 120.309 52.26 120.56C48.3405 121.027 44.3795 121.027 40.46 120.56Z" fill="#EBEBEB"/>
<path d="M40.46 124.52C42.1592 124.279 43.8737 124.162 45.59 124.17C47.303 124.157 49.0145 124.274 50.71 124.52C47.3102 125 43.8598 125 40.46 124.52Z" fill="#EBEBEB"/>
<path d="M40.46 128.49C44.8208 128.023 49.2191 128.023 53.58 128.49C49.2191 128.956 44.8208 128.956 40.46 128.49Z" fill="#EBEBEB"/>
<path d="M40.46 132.45C44.0549 131.983 47.695 131.983 51.29 132.45C47.695 132.916 44.0549 132.916 40.46 132.45Z" fill="#EBEBEB"/>
<path d="M40.46 136.42C44.9739 135.94 49.526 135.94 54.04 136.42C51.7852 136.666 49.5181 136.783 47.25 136.77C44.9819 136.778 42.7152 136.661 40.46 136.42Z" fill="#EBEBEB"/>
<path d="M40.46 140.379C44.9746 139.913 49.5253 139.913 54.04 140.379C51.7856 140.631 49.5182 140.748 47.25 140.73C44.9818 140.743 42.7148 140.626 40.46 140.379Z" fill="#EBEBEB"/>
<path d="M59.8096 108.67C64.0936 108.204 68.4156 108.204 72.6996 108.67C70.559 108.921 68.4048 109.038 66.2496 109.02C64.0978 109.034 61.9472 108.917 59.8096 108.67Z" fill="#EBEBEB"/>
<path d="M59.8096 112.62C62.6136 112.154 65.4755 112.154 68.2796 112.62C65.4766 113.1 62.6125 113.1 59.8096 112.62Z" fill="#EBEBEB"/>
<path d="M59.8096 116.62C63.8387 116.14 67.9105 116.14 71.9396 116.62C67.9097 117.086 63.8394 117.086 59.8096 116.62Z" fill="#EBEBEB"/>
<path d="M59.8096 120.56C61.7664 120.313 63.7373 120.196 65.7096 120.21C67.6819 120.192 69.6531 120.309 71.6096 120.56C67.6901 121.026 63.7291 121.026 59.8096 120.56Z" fill="#EBEBEB"/>
<path d="M59.8096 124.52C61.9476 124.278 64.0979 124.162 66.2496 124.17C68.4046 124.157 70.5586 124.274 72.6996 124.52C68.4163 125 64.0928 125 59.8096 124.52Z" fill="#EBEBEB"/>
<path d="M59.8096 128.49C63.2103 128.023 66.6588 128.023 70.0596 128.49C66.6588 128.956 63.2103 128.956 59.8096 128.49Z" fill="#EBEBEB"/>
<path d="M59.8096 132.45C63.8394 131.983 67.9097 131.983 71.9396 132.45C67.9097 132.916 63.8394 132.916 59.8096 132.45Z" fill="#EBEBEB"/>
<path d="M59.8096 136.42C62.9178 135.94 66.0813 135.94 69.1896 136.42C67.6385 136.665 66.0699 136.782 64.4996 136.77C62.9294 136.778 61.3611 136.661 59.8096 136.42Z" fill="#EBEBEB"/>
<path d="M59.8096 140.38C62.7914 139.914 65.8277 139.914 68.8096 140.38C67.323 140.631 65.817 140.748 64.3096 140.73C62.8023 140.743 61.2967 140.626 59.8096 140.38Z" fill="#EBEBEB"/>
<path d="M78.56 22.3203H56V44.8803H78.56V22.3203Z" fill="#FF2F2F"/>
<path d="M68.6296 24.6203C68.6316 24.8877 68.5541 25.1497 68.407 25.373C68.2599 25.5963 68.0497 25.7709 67.8032 25.8746C67.5567 25.9784 67.285 26.0065 67.0225 25.9556C66.7599 25.9046 66.5185 25.7768 66.3287 25.5884C66.1388 25.4001 66.0093 25.1595 65.9564 24.8974C65.9035 24.6352 65.9296 24.3633 66.0315 24.116C66.1334 23.8688 66.3064 23.6573 66.5286 23.5085C66.7508 23.3597 67.0122 23.2803 67.2797 23.2803C67.4565 23.279 67.6318 23.3127 67.7955 23.3794C67.9592 23.4462 68.1081 23.5447 68.2336 23.6692C68.3591 23.7938 68.4587 23.942 68.5267 24.1052C68.5947 24.2684 68.6297 24.4435 68.6296 24.6203Z" fill="#455A64"/>
<path d="M243.13 7.69043H5.66016V17.6804H243.13V7.69043Z" fill="#DBDBDB"/>
<path d="M89.4404 34.8004L158.24 34.6504L227.04 34.8004L158.24 34.9504L89.4404 34.8004Z" fill="#C7C7C7"/>
<path d="M89.4404 40.4098L158.24 40.2598L227.04 40.4098L158.24 40.5598L89.4404 40.4098Z" fill="#C7C7C7"/>
<path d="M89.4404 46.0201L158.24 45.8701L227.04 46.0201L158.24 46.1701L89.4404 46.0201Z" fill="#C7C7C7"/>
<path d="M89.4404 51.6305L158.24 51.4805L227.04 51.6305L158.24 51.7805L89.4404 51.6305Z" fill="#C7C7C7"/>
<path d="M89.4404 57.2396L158.24 57.0996L227.04 57.2396L158.24 57.3896L89.4404 57.2396Z" fill="#C7C7C7"/>
<path d="M89.4404 62.86L158.24 62.71L227.04 62.86L158.24 63L89.4404 62.86Z" fill="#C7C7C7"/>
<path d="M89.4404 68.4703L158.24 68.3203L227.04 68.4703L158.24 68.6103L89.4404 68.4703Z" fill="#C7C7C7"/>
<path d="M89.4404 74.0797L158.24 73.9297L227.04 74.0797L158.24 74.2197L89.4404 74.0797Z" fill="#C7C7C7"/>
<path d="M89.4404 79.69L158.24 79.54L227.04 79.69L158.24 79.84L89.4404 79.69Z" fill="#C7C7C7"/>
<path d="M89.4404 85.3004L158.24 85.1504L227.04 85.3004L158.24 85.4504L89.4404 85.3004Z" fill="#C7C7C7"/>
<path d="M89.4404 90.9098L158.24 90.7598L227.04 90.9098L158.24 91.0598L89.4404 90.9098Z" fill="#C7C7C7"/>
<path d="M89.4404 96.5201L158.24 96.3701L227.04 96.5201L158.24 96.6701L89.4404 96.5201Z" fill="#C7C7C7"/>
<path d="M89.4404 102.13L158.24 101.98L227.04 102.13L158.24 102.28L89.4404 102.13Z" fill="#C7C7C7"/>
<path d="M89.4404 107.74L158.24 107.59L227.04 107.74L158.24 107.89L89.4404 107.74Z" fill="#C7C7C7"/>
<path d="M89.4404 113.35L158.24 113.21L227.04 113.35L158.24 113.5L89.4404 113.35Z" fill="#C7C7C7"/>
<path d="M114.42 74.0801H103.99V119.9H114.42V74.0801Z" fill="#FF2F2F"/>
<path d="M133.77 54.7002H123.34V119.9H133.77V54.7002Z" fill="#EBEBEB"/>
<path d="M153.13 45.9004H142.7V119.9H153.13V45.9004Z" fill="#FF2F2F"/>
<path d="M172.49 57.3701H162.06V119.89H172.49V57.3701Z" fill="#EBEBEB"/>
<path d="M191.85 60.79H181.42V119.9H191.85V60.79Z" fill="#FF2F2F"/>
<path d="M211.2 94.2803H200.77V119.9H211.2V94.2803Z" fill="#EBEBEB"/>
<path d="M93.1701 30.8604L93.4001 53.1204L93.5601 75.3803C93.6735 90.2203 93.7268 105.06 93.7201 119.9L93.1701 119.35H126.64L160.1 119.42L193.57 119.6L227.04 119.93L193.57 120.25L160.1 120.43L126.64 120.5H93.1701H92.6201V119.95C92.6201 105.11 92.6735 90.2704 92.7801 75.4304L92.9401 53.1704L93.1701 30.8604Z" fill="#C7C7C7"/>
<path d="M114.42 124.6H103.99V125.54H114.42V124.6Z" fill="#C7C7C7"/>
<path d="M133.77 124.6H123.34V125.54H133.77V124.6Z" fill="#C7C7C7"/>
<path d="M153.13 124.6H142.7V125.54H153.13V124.6Z" fill="#C7C7C7"/>
<path d="M172.49 124.6H162.06V125.54H172.49V124.6Z" fill="#C7C7C7"/>
<path d="M191.85 124.6H181.42V125.54H191.85V124.6Z" fill="#C7C7C7"/>
<path d="M211.2 124.6H200.77V125.54H211.2V124.6Z" fill="#C7C7C7"/>
<path d="M125.73 136.77H102.8V138.74H125.73V136.77Z" fill="#C7C7C7"/>
<path d="M133.78 140.88H102.8V142.85H133.78V140.88Z" fill="#C7C7C7"/>
<path d="M119.24 145H102.8V146.97H119.24V145Z" fill="#C7C7C7"/>
<path d="M97.6902 136.77H92.9102V141.55H97.6902V136.77Z" fill="#FF2F2F"/>
<path d="M183.32 136.77H156.06V138.74H183.32V136.77Z" fill="#C7C7C7"/>
<path d="M177.62 140.88H156.06V142.85H177.62V140.88Z" fill="#C7C7C7"/>
<path d="M187.04 145H156.06V146.97H187.04V145Z" fill="#C7C7C7"/>
<path d="M150.94 136.77H146.16V141.55H150.94V136.77Z" fill="#EBEBEB"/>
</svg>
