<svg width="91" height="102" viewBox="0 0 91 102" fill="none" xmlns="http://www.w3.org/2000/svg">
<path d="M88.4728 101.98H1.95996C1.44015 101.98 0.941624 101.774 0.574059 101.406C0.206494 101.039 0 100.54 0 100.02V40.707L41.4484 9.34755C42.1887 8.7853 43.0898 8.47522 44.0193 8.46288C44.9489 8.45053 45.8579 8.73656 46.6129 9.27896L90.4328 40.707V100.035C90.4289 100.552 90.2207 101.047 89.8535 101.412C89.4864 101.776 88.9901 101.98 88.4728 101.98Z" fill="#D9D9D9"/>
<path opacity="0.2" d="M88.4728 101.98H1.95996C1.44015 101.98 0.941624 101.774 0.574059 101.406C0.206494 101.039 0 100.54 0 100.02V40.707L41.4484 9.34755C42.1887 8.7853 43.0898 8.47522 44.0193 8.46288C44.9489 8.45053 45.8579 8.73656 46.6129 9.27896L90.4328 40.707V100.035C90.4289 100.552 90.2207 101.047 89.8535 101.412C89.4864 101.776 88.9901 101.98 88.4728 101.98Z" fill="black"/>
<path d="M73.1551 101.051H11.9062C12.6591 100.561 13.2776 99.8905 13.7055 99.1007C14.1334 98.3108 14.3571 97.4266 14.3562 96.5283V4.58142C14.3571 3.61664 14.6345 2.67233 15.1555 1.86036C15.6766 1.04839 16.4195 0.402771 17.2962 0H78.5451C77.6684 0.402771 76.9255 1.04839 76.4045 1.86036C75.8834 2.67233 75.606 3.61664 75.6051 4.58142V96.5283C75.606 97.4266 75.3823 98.3108 74.9544 99.1007C74.5266 99.8905 73.908 100.561 73.1551 101.051Z" fill="#D1D1D1"/>
<path opacity="0.7" d="M73.1551 101.051H11.9062C12.6591 100.561 13.2776 99.8905 13.7055 99.1007C14.1334 98.3108 14.3571 97.4266 14.3562 96.5283V4.58142C14.3571 3.61664 14.6345 2.67233 15.1555 1.86036C15.6766 1.04839 16.4195 0.402771 17.2962 0H78.5451C77.6684 0.402771 76.9255 1.04839 76.4045 1.86036C75.8834 2.67233 75.606 3.61664 75.6051 4.58142V96.5283C75.606 97.4266 75.3823 98.3108 74.9544 99.1007C74.5266 99.8905 73.908 100.561 73.1551 101.051Z" fill="white"/>
<path d="M71.3621 27.513C70.4948 27.0818 67.893 27.5522 67.2119 27.6306C66.5308 27.709 66.2074 27.6698 65.5851 27.7433C64.9629 27.8168 64.8992 27.7433 64.7914 27.513C64.6836 27.2827 63.5958 27.4346 63.3214 27.3317C63.047 27.2288 60.6019 27.7482 57.9854 27.7433C55.3688 27.7384 57.123 27.7874 56.7457 27.3317C56.3684 26.876 55.1091 27.6698 54.8347 27.7188C54.5603 27.7678 53.9135 27.7874 53.8155 27.317C53.7175 26.8466 53.0414 27.807 52.3799 27.709C51.7184 27.611 53.1492 26.5771 52.2427 27.0426C51.3362 27.5081 49.2488 27.709 49.2488 27.709L49.9103 28.199C47.4114 28.2382 45.2358 28.2774 44.7997 28.3166C44.3636 28.3558 44.0941 28.3558 43.6041 27.5669C43.1141 26.778 43.168 27.7678 41.3208 28.2382C39.4735 28.7086 39.0374 28.591 38.1652 28.1598C37.293 27.7286 36.8618 28.199 36.2053 28.2774C35.5487 28.3558 35.2008 28.3166 34.5785 28.3901C33.9562 28.4636 33.8974 28.3901 33.7847 28.1598C33.672 27.9295 32.5891 28.0814 32.3147 27.9785C32.0403 27.8756 29.5953 28.395 26.9787 28.3901C24.3622 28.3852 26.1163 28.4342 25.7391 27.9785C25.3618 27.5228 24.1025 28.3166 23.833 28.3656C23.5635 28.4146 22.9069 28.4342 22.8138 27.9638C22.7207 27.4934 22.0347 28.4538 21.3781 28.3558C20.7215 28.2578 22.1474 27.2239 21.236 27.6894C20.3247 28.1549 18.2422 28.3558 18.2422 28.3558" stroke="#263238" stroke-width="0.489991" stroke-linecap="round" stroke-linejoin="round"/>
<path d="M34.4124 9.18245C34.138 9.07955 31.6929 9.59894 29.0764 9.59404C26.4598 9.58914 28.214 9.63814 27.8416 9.18245C27.4692 8.72676 26.2001 9.52054 25.9306 9.56954C25.6611 9.61854 25.0046 9.63814 24.9115 9.16775C24.8184 8.69736 24.1373 9.65774 23.4758 9.55975C22.8143 9.46175 24.2451 8.42786 23.3386 8.89826C22.4321 9.36865 20.3398 9.55975 20.3398 9.55975" stroke="#263238" stroke-width="0.489991" stroke-linecap="round" stroke-linejoin="round"/>
<path d="M71.3626 78.0556C71.0931 77.9527 68.648 78.4721 66.0315 78.4672C63.4149 78.4623 65.1642 78.5113 64.7918 78.0556C64.4194 77.5999 63.1552 78.3937 62.8808 78.4427C62.6064 78.4917 61.9597 78.5113 61.8617 78.0409C61.7637 77.5705 61.0875 78.5309 60.426 78.4329C59.7645 78.3349 61.1953 77.301 60.2888 77.7665C59.3823 78.232 57.29 78.4329 57.29 78.4329" stroke="#263238" stroke-width="0.489991" stroke-linecap="round" stroke-linejoin="round"/>
<path d="M18.1885 33.1185C18.3628 33.0445 18.5503 33.0064 18.7397 33.0064C18.9291 33.0064 19.1166 33.0445 19.291 33.1185L19.7319 32.8049C19.9867 33.1136 20.4718 33.0303 20.8246 32.8539C21.1448 32.6197 21.5261 32.4835 21.9222 32.4619C21.8977 32.6285 21.8683 32.8 21.8438 32.9519C22.3658 32.8831 22.8754 32.7413 23.3579 32.5305C23.3215 32.6015 23.3145 32.6839 23.3383 32.76C23.3621 32.836 23.4149 32.8997 23.4853 32.9372C23.6271 33.0046 23.7856 33.0285 23.941 33.0058L28.4685 32.8441L29.2672 32.8147C29.3117 32.8304 29.3486 32.8624 29.3704 32.9042C29.3923 32.9461 29.3974 32.9946 29.3848 33.0401C29.9671 32.9389 30.4995 32.6477 30.8989 32.212C30.8748 32.3793 30.9142 32.5496 31.0095 32.6893C31.1047 32.829 31.2488 32.9279 31.4133 32.9666C31.7506 33.0312 32.0998 32.9683 32.3933 32.7902C32.5226 32.7108 32.6655 32.656 32.8147 32.6285C32.8906 32.6197 32.9671 32.6379 33.0308 32.6801C33.0944 32.7222 33.1411 32.7855 33.1626 32.8588C33.4419 32.7314 33.7408 32.9519 34.0397 33.0303C34.2249 33.0689 34.4147 33.0804 34.6032 33.0646L40.7183 32.8147L42.2127 33.1038C42.2127 33.1038 44.305 32.9078 45.2115 32.4423C46.118 31.9768 44.6921 32.9862 45.3487 33.1038C46.0053 33.2214 46.6913 32.2414 46.7844 32.7118C46.8775 33.1822 47.5341 33.1626 47.8035 33.1136C48.073 33.0646 49.3421 32.2757 49.7145 32.7314C50.0869 33.1871 48.3376 33.1332 50.9542 33.1381C53.5707 33.143 56.0158 32.6481 56.2853 32.7314C56.5548 32.8147 57.6475 32.6775 57.7553 32.9078C57.8631 33.1381 57.9219 33.2116 58.5491 33.1381C59.1762 33.0646 59.4947 33.1038 60.1758 33.0254C60.8569 32.947 61.2881 32.4815 62.1603 32.9078C63.0325 33.3341 63.4637 33.4566 65.3158 32.9862C67.168 32.5158 67.1092 31.5162 67.5992 32.3198C68.0892 33.1234 70.9507 33.1038 71.3819 33.0646" stroke="#263238" stroke-width="0.489991" stroke-linecap="round" stroke-linejoin="round"/>
<path d="M71.2836 23.5049C71.0974 23.5049 71.4698 23.5049 71.2836 23.4706C70.9896 23.3922 71.5629 23.1717 71.2836 23.2991C71.2591 23.1472 68.5201 23.059 68.3682 23.0737C68.2188 23.098 68.0757 23.1513 67.9468 23.2305C67.6532 23.4086 67.304 23.4714 66.9668 23.4069C66.8068 23.3631 66.6684 23.262 66.5781 23.1229C66.4877 22.9838 66.4517 22.8163 66.4768 22.6523C66.0765 23.0878 65.5448 23.3803 64.9627 23.4853C64.9755 23.4391 64.9706 23.3899 64.9488 23.3472C64.927 23.3046 64.89 23.2717 64.8451 23.255L64.0464 23.2844L59.5189 23.451C59.3632 23.4694 59.2053 23.4439 59.0632 23.3775C58.9929 23.34 58.9401 23.2763 58.9163 23.2002C58.8924 23.1241 58.8995 23.0417 58.9358 22.9708C58.4534 23.1815 57.9437 23.3234 57.4218 23.3922C57.4512 23.2207 57.4757 23.0492 57.5002 22.9022C57.1046 22.9263 56.7239 23.0622 56.4026 23.2942C56.0498 23.4706 55.5647 23.5539 55.3099 23.2452L54.8689 23.5637C54.6948 23.4886 54.5073 23.4498 54.3177 23.4498C54.1281 23.4498 53.9405 23.4886 53.7664 23.5637L49.3565 23.1325C49.3565 23.1325 47.3181 23.1766 46.9948 22.9953C46.6714 22.814 45.5248 23.451 45.5248 23.451H44.0548L42.1781 23.5196V23.1619C41.4532 23.3143 40.7177 23.411 39.9781 23.451C38.9197 23.4902 38.6747 23.6421 38.6257 23.1619C38.5767 22.6817 37.2047 23.2942 36.1169 23.5196C35.0292 23.745 35.2497 23.7009 34.9214 23.1619C34.5931 22.6229 34.1864 23.2354 33.618 23.4559C33.3225 23.5867 33.0029 23.6543 32.6797 23.6543C32.3565 23.6543 32.0368 23.5867 31.7413 23.4559C31.2513 23.157 29.1297 23.6421 28.2673 23.6519C27.4049 23.6617 28.233 23.4118 28.0517 22.9953C27.8704 22.5788 27.253 23.7009 26.6699 23.6519C26.0868 23.6029 27.1599 22.5298 26.3416 22.6131C25.5667 22.7928 24.8267 23.0991 24.1514 23.5196" stroke="#263238" stroke-width="0.489991" stroke-linecap="round" stroke-linejoin="round"/>
<path d="M67.6143 37.4745C67.2909 37.4745 66.8499 37.2246 66.8744 36.519C66.6539 36.3034 66.4138 36.6905 66.2031 36.96C65.9924 37.2295 65.6397 37.2589 65.5809 36.7395C65.5146 36.8117 65.4328 36.8679 65.3416 36.9038C65.2505 36.9397 65.1523 36.9544 65.0547 36.9469C64.957 36.9393 64.8623 36.9097 64.7777 36.8602C64.6932 36.8107 64.621 36.7426 64.5666 36.6611C64.5122 36.861 64.385 37.0332 64.2099 37.1439C64.0349 37.2545 63.8247 37.2956 63.6209 37.2589L54.9676 36.8963C54.7517 36.9078 54.5381 36.8475 54.3601 36.7248C54.2327 36.6268 54.12 36.47 53.9877 36.4161C53.6349 36.2594 53.3164 36.8669 53.0077 37.2295C52.699 37.5921 52.1649 37.5186 52.111 36.7395C51.7435 37.45 51.1898 37.6558 50.7341 37.2295C50.5283 37.401 50.3078 37.5725 50.0922 37.4941C49.9472 37.3797 49.8356 37.2283 49.7692 37.0559C49.7028 36.8835 49.684 36.6963 49.7149 36.5141C49.678 36.7969 49.5683 37.0653 49.3965 37.2929C49.2247 37.5205 48.9968 37.6996 48.735 37.8126C48.324 37.8727 47.9048 37.7934 47.5443 37.5872L44.0702 37.7244C42.9194 37.8179 41.7609 37.7236 40.6403 37.4451C40.6697 37.6852 40.3022 37.7783 40.0327 37.7832L37.7494 37.8224C37.5834 37.8344 37.4167 37.8127 37.2594 37.7587C37.1834 37.734 37.1188 37.6828 37.0774 37.6144C37.0361 37.5461 37.0206 37.4651 37.034 37.3863C36.5643 37.5087 36.0725 37.5187 35.5983 37.4157C35.3288 37.2736 35.0348 37.5431 34.7555 37.6656C34.4998 37.7572 34.2274 37.7923 33.9568 37.7685L30.0124 37.7048C29.6596 37.7048 29.2431 37.6656 29.0569 37.3961C28.4767 37.6144 27.9467 37.9477 27.4987 38.3761C27.5771 38.0957 27.5771 37.7991 27.4987 37.5186C27.087 37.6675 26.7041 37.8863 26.3669 38.1654C26.3228 37.6313 26.2738 37.0972 26.2248 36.568C25.4408 36.6562 24.8969 37.401 24.108 37.4794C23.6649 37.4404 23.2197 37.4305 22.7752 37.45C22.4273 37.5284 22.0059 37.7734 21.7609 37.5333C21.6923 37.4696 21.658 37.3716 21.5698 37.3275C21.5118 37.3091 21.4506 37.3027 21.3899 37.3085C21.3293 37.3144 21.2705 37.3326 21.217 37.3618C20.2063 37.7314 19.1063 37.781 18.0664 37.5039" stroke="#263238" stroke-width="0.489991" stroke-linecap="round" stroke-linejoin="round"/>
<path d="M17.6689 47.5194C17.6689 47.5194 19.3398 47.3234 20.065 46.853C20.7902 46.3826 19.6485 47.4018 20.1777 47.5194C20.7069 47.637 21.2508 46.6521 21.3292 47.1225C21.4076 47.5928 21.927 47.5781 22.1426 47.5291C22.3582 47.4801 23.3724 46.6864 23.6713 47.1421C23.9702 47.5977 22.5689 47.5487 24.6513 47.5536C26.7338 47.5585 28.7035 47.0637 28.9191 47.1421C29.1347 47.2205 30.0069 47.0882 30.0951 47.3234C30.1833 47.5585 30.2274 47.6222 30.7272 47.5536C31.227 47.485 31.4867 47.5194 32.0306 47.441C32.5745 47.3626 32.9224 46.8922 33.6231 47.3234C34.3237 47.7545 34.6667 47.8672 36.1465 47.4018C37.6263 46.9363 37.5822 45.9318 37.9742 46.7305C38.3662 47.5292 38.5818 47.5194 38.9297 47.4802C39.2776 47.441 41.0219 47.4018 43.0211 47.3626L46.6372 47.2401C47.675 47.519 48.7735 47.4711 49.783 47.1029C49.8364 47.0736 49.8952 47.0555 49.9558 47.0496C50.0165 47.0437 50.0777 47.0501 50.1358 47.0686C50.224 47.1127 50.2632 47.2058 50.3318 47.2744C50.5719 47.5096 50.9933 47.2744 51.346 47.1862C51.7906 47.1708 52.2357 47.1823 52.6788 47.2205C53.4628 47.1421 54.0067 46.3973 54.7956 46.3042C54.8397 46.8383 54.8887 47.3724 54.9377 47.9015C55.2734 47.624 55.6547 47.4068 56.0646 47.2597C56.1454 47.5398 56.1454 47.837 56.0646 48.1171C56.5106 47.6861 57.0412 47.3524 57.6228 47.1372C57.809 47.4067 58.2206 47.4409 58.5734 47.4458L62.5227 47.5096C62.7933 47.5327 63.0656 47.4976 63.3214 47.4066C63.6007 47.2842 63.8947 47.0147 64.1642 47.1519C64.6378 47.2589 65.1302 47.2505 65.5999 47.1274C65.5866 47.2061 65.602 47.2871 65.6434 47.3554C65.6847 47.4238 65.7493 47.475 65.8253 47.4997C65.983 47.5521 66.1496 47.5721 66.3153 47.5585L68.5986 47.5194C68.8681 47.5194 69.2307 47.4263 69.2062 47.1862C70.3185 47.4605 70.1862 47.5586 71.3132 47.4655" stroke="#263238" stroke-width="0.489991" stroke-linecap="round" stroke-linejoin="round"/>
<path d="M71.3625 42.203C69.8925 42.6684 70.505 42.5508 69.8093 42.1246C69.1135 41.6983 68.7656 42.1638 68.2217 42.2422C67.6778 42.3206 67.4132 42.2814 66.9134 42.3549C66.4136 42.4283 66.3695 42.3549 66.2813 42.1246C66.1931 41.8943 65.3258 42.0462 65.1053 41.9433C64.8848 41.8404 62.9298 42.3598 60.8375 42.3549C58.7453 42.35 60.1466 42.399 59.8575 41.9433C59.5684 41.4876 58.5493 42.2814 58.3288 42.3304C58.1083 42.3793 57.5889 42.3989 57.5154 41.9237C57.4419 41.4484 56.8931 42.4137 56.3639 42.3206C55.8347 42.2275 56.9813 41.1887 56.2561 41.6542C55.5309 42.1197 53.8551 42.3206 53.8551 42.3206L49.7147 42.1932L46.6033 42.2275C46.2799 42.2275 45.8438 41.9776 45.8683 41.2475C45.6429 41.0319 45.4077 41.419 45.1921 41.6885C44.9765 41.958 44.6286 41.9874 44.5747 41.468C44.508 41.5402 44.4257 41.5964 44.3342 41.6323C44.2427 41.6682 44.1442 41.6829 44.0461 41.6754C43.9481 41.6679 43.853 41.6382 43.7681 41.5887C43.6831 41.5392 43.6104 41.4711 43.5555 41.3896C43.5012 41.5884 43.3747 41.7599 43.2008 41.8705C43.0268 41.981 42.8178 42.0227 42.6147 41.9874L33.9615 41.6248C33.7439 41.6373 33.5284 41.5769 33.349 41.4533C33.2388 41.3366 33.1155 41.233 32.9815 41.1446C32.6238 40.9878 32.3053 41.5954 32.0015 41.958C31.6977 42.3206 31.1539 42.252 31.1049 41.468C30.7325 42.1785 30.1788 42.3843 29.7231 41.958C29.5173 42.1295 29.3017 42.3058 29.0861 42.2226C28.9409 42.108 28.829 41.9568 28.7618 41.7845C28.6946 41.6122 28.6746 41.4251 28.7039 41.2426C28.6661 41.525 28.556 41.793 28.3843 42.0204C28.2126 42.2479 27.9852 42.4272 27.7239 42.5411C27.3114 42.6008 26.8908 42.5215 26.5283 42.3157" stroke="#263238" stroke-width="0.489991" stroke-linecap="round" stroke-linejoin="round"/>
<path d="M71.3618 10.0546L62.7086 9.68711C62.4924 9.70123 62.2779 9.64069 62.101 9.51561C61.9889 9.39901 61.8639 9.29545 61.7286 9.20692C61.3758 9.05502 61.0573 9.65771 60.7486 10.0252C60.4399 10.3927 59.9009 10.3143 59.8519 9.53521C59.4795 10.2457 58.9258 10.4515 58.4701 10.0252C58.2643 10.1967 58.0487 10.3731 57.8282 10.2947C57.6844 10.1793 57.5736 10.0278 57.5074 9.85562C57.4411 9.68347 57.4216 9.49683 57.451 9.31472C57.4131 9.59718 57.303 9.8651 57.1314 10.0926C56.9597 10.32 56.7322 10.4994 56.471 10.6132C56.0586 10.6689 55.6392 10.5898 55.2754 10.3878" stroke="#263238" stroke-width="0.489991" stroke-linecap="round" stroke-linejoin="round"/>
<path d="M71.3618 82.2009L62.7086 81.8383C62.4927 81.8498 62.279 81.7895 62.101 81.6668C61.9889 81.5487 61.864 81.4435 61.7286 81.3532C61.3758 81.2013 61.0573 81.8089 60.7486 82.1715C60.4399 82.5341 59.9009 82.4606 59.8519 81.6815C59.4795 82.392 58.9258 82.5978 58.4701 82.1715C58.2643 82.343 58.0487 82.5145 57.8282 82.4361C57.6844 82.3207 57.5736 82.1692 57.5074 81.997C57.4411 81.8249 57.4216 81.6382 57.451 81.4561C57.4131 81.7386 57.303 82.0065 57.1314 82.234C56.9597 82.4615 56.7322 82.6408 56.471 82.7546C56.0585 82.8151 55.6376 82.7357 55.2754 82.5292" stroke="#263238" stroke-width="0.489991" stroke-linecap="round" stroke-linejoin="round"/>
<path d="M17.6689 56.692C18.9673 56.9692 20.314 56.9203 21.5889 56.5499C21.7281 56.4904 21.8831 56.4784 22.0299 56.5156C22.1377 56.5597 22.1818 56.6528 22.27 56.7214C22.5738 56.9566 23.0931 56.7214 23.5292 56.6332C24.0633 56.5352 24.6317 56.7116 25.1805 56.6675C26.1605 56.5891 26.8318 55.8443 27.8118 55.7512L27.9882 57.3486C28.4211 57.0667 28.8933 56.8504 29.3895 56.7067C29.4899 56.9837 29.4899 57.2872 29.3895 57.5642C29.9688 57.1211 30.625 56.7888 31.325 56.5842C31.6669 56.8335 32.0907 56.9439 32.5108 56.8929L37.4107 56.9566C37.7408 56.9792 38.0724 56.9444 38.3907 56.8537C38.7386 56.7312 39.1012 56.4617 39.4393 56.6038C40.0303 56.7068 40.6355 56.6968 41.2228 56.5744C41.1591 56.7214 41.3061 56.8782 41.4972 56.9468C41.7017 57.0004 41.9133 57.0219 42.1244 57.0105L44.9615 56.9664C45.2947 56.9664 45.7503 56.8733 45.716 56.6332C47.1189 56.9105 48.5519 57.0044 49.979 56.9125L53.4775 57.0987C53.9875 56.9469 54.5306 56.9469 55.0406 57.0987L55.6629 56.7802C56.0255 57.0889 56.7163 57.0105 57.2161 56.8292C57.7029 56.5923 58.2334 56.4589 58.7743 56.4372C58.74 56.6087 58.7008 56.7753 58.6665 56.9272C59.3944 56.8601 60.1135 56.719 60.8127 56.5058C60.6804 56.6381 60.8127 56.8341 60.9891 56.9125C61.1994 56.9793 61.4208 57.0043 61.6408 56.986L68.0596 56.8194L69.1964 56.79C69.3238 56.8145 69.4071 56.9272 69.363 57.0203C70.0888 56.9346 70.7761 56.6478 71.3475 56.1922C71.2299 56.5205 70.8918 56.8586 71.3475 56.9419" stroke="#263238" stroke-width="0.489991" stroke-linecap="round" stroke-linejoin="round"/>
<path d="M71.2645 51.797C70.9264 51.6598 71.6124 51.9244 71.2645 52.0518C70.9166 52.1792 71.5977 52.1547 71.2645 52.1547L65.7962 52.0861C65.3769 52.136 64.9541 52.0277 64.6104 51.7823C63.9111 51.9888 63.2553 52.3208 62.675 52.7622C62.7753 52.4869 62.7753 52.185 62.675 51.9097C62.1772 52.0492 61.7044 52.2658 61.2736 52.5516L61.0972 50.9542C60.1172 51.0473 59.4459 51.7921 58.4659 51.8705C57.9172 51.9146 57.3488 51.7333 56.8147 51.8362C56.3786 51.9195 55.8347 52.1596 55.5554 51.9195C55.4672 51.8558 55.4231 51.7578 55.3153 51.7137C55.1683 51.6789 55.0141 51.6909 54.8743 51.748C53.6003 52.1234 52.2523 52.1722 50.9544 51.8901L49.5187 52.0175L40.841 52.2674C40.5726 52.2831 40.3034 52.2716 40.0374 52.2331C39.616 52.1547 39.1897 51.9342 38.7928 52.0616C38.7536 51.9097 38.5135 51.8215 38.3028 51.8313C38.0982 51.855 37.8983 51.9096 37.7099 51.993C37.277 52.1684 36.8061 52.2292 36.3428 52.1694C35.8822 52.0861 35.4951 51.7431 35.6127 51.4148C34.9832 51.8758 34.2426 52.1616 33.4666 52.2429C33.5058 52.1547 33.4274 52.042 33.2951 52.0126L32.1632 52.0469L25.7443 52.2086C25.5247 52.2289 25.3032 52.2056 25.0926 52.14C24.9015 52.0567 24.7839 51.8607 24.9113 51.7333C24.2124 51.9473 23.4932 52.0886 22.7652 52.1547C22.8044 51.9832 22.8387 51.8117 22.8779 51.6402C22.3362 51.6605 21.8051 51.7958 21.3197 52.0371C20.8297 52.2135 20.1241 52.2968 19.7664 51.9881L19.1392 52.3017C18.629 52.1521 18.0865 52.1521 17.5762 52.3017" stroke="#263238" stroke-width="0.489991" stroke-linecap="round" stroke-linejoin="round"/>
<path d="M17.5664 61.7242C17.9713 61.8259 18.3898 61.8623 18.8061 61.832C19.0179 61.8155 19.2226 61.7487 19.4033 61.637C19.584 61.5254 19.7354 61.3721 19.8449 61.1901C19.8426 61.3047 19.8805 61.4166 19.9521 61.5061C20.0238 61.5956 20.1245 61.6572 20.2369 61.6801C20.4668 61.6966 20.697 61.651 20.9033 61.5478C21.1422 61.6452 21.4038 61.6729 21.6579 61.6278C21.9119 61.5827 22.1481 61.4666 22.3389 61.293C22.3928 61.685 22.9367 61.7242 23.2699 61.5429C23.6031 61.3616 23.9363 61.0529 24.3038 61.1362C24.4363 61.1775 24.5657 61.2282 24.6909 61.2881C24.8949 61.354 25.1088 61.3838 25.323 61.3763L34.3241 61.5576C34.4994 61.5864 34.6791 61.5745 34.849 61.5226C35.019 61.4708 35.1747 61.3805 35.3041 61.2587C35.4658 61.3458 35.6452 61.3945 35.8287 61.4013C36.0122 61.4081 36.1948 61.3727 36.3625 61.2979C36.4213 61.5576 36.7888 61.538 37.0093 61.4057C37.2298 61.2734 37.4748 61.0823 37.7051 61.1901C37.6806 61.538 38.1362 61.6801 38.4743 61.6801H41.7083L42.8549 61.6213C43.3648 61.4695 43.908 61.4695 44.4179 61.6213L45.0451 61.3028C45.4077 61.6115 46.0986 61.5282 46.5984 61.3518C47.084 61.1119 47.6152 60.9783 48.1566 60.9598C48.1174 61.1313 48.0831 61.2979 48.0439 61.4498C48.7734 61.3832 49.4942 61.242 50.1949 61.0284C50.0626 61.1607 50.1949 61.3567 50.3713 61.4351C50.5816 61.5024 50.8031 61.5274 51.023 61.5086L57.4419 61.342L58.5738 61.3126C58.7061 61.3371 58.7845 61.4498 58.7453 61.5429C59.5211 61.4572 60.261 61.17 60.8914 60.7099C60.7738 61.0431 61.1658 61.3812 61.6215 61.4645C62.0848 61.5273 62.5564 61.4664 62.9886 61.2881C63.1787 61.2056 63.3803 61.1527 63.5864 61.1313C63.7971 61.1313 64.0372 61.2048 64.0764 61.3567C64.4989 61.3161 64.9251 61.3749 65.321 61.5282C65.5867 61.5692 65.8562 61.5807 66.1245 61.5625" stroke="#263238" stroke-width="0.489991" stroke-linecap="round" stroke-linejoin="round"/>
<path d="M90.4327 40.707V100.04C90.4283 100.52 90.2477 100.982 89.9253 101.338C89.6028 101.694 89.1609 101.919 88.6834 101.971H88.4875H1.9599H1.759C1.28331 101.917 0.843781 101.691 0.523332 101.335C0.202882 100.979 0.0236751 100.519 0.0195312 100.04V40.707L38.5377 67.2939L40.6447 68.7639L44.0257 71.1011L47.5977 68.7639L49.8222 67.2939L90.4327 40.707Z" fill="#D9D9D9"/>
<path opacity="0.2" d="M90.4329 99.2658V99.8489C90.4499 100.354 90.2813 100.849 89.9592 101.239C89.637 101.628 89.1833 101.887 88.6837 101.966H88.4877H1.96014H1.75924C1.26139 101.885 0.810089 101.625 0.489878 101.236C0.169667 100.846 0.00252462 100.353 0.0197672 99.8489V99.2609L38.538 67.289L40.6449 68.759L44.0259 71.0962L47.5979 68.759L49.8225 67.289L90.4329 99.2658Z" fill="black"/>
<path d="M90.4328 99.5059V100.04C90.4328 100.56 90.2263 101.058 89.8587 101.426C89.4912 101.793 88.9926 102 88.4728 102H1.95996C1.44015 102 0.941624 101.793 0.574059 101.426C0.206494 101.058 0 100.56 0 100.04V99.5059L40.6252 68.7492L41.4484 68.1269C42.189 67.5654 43.09 67.2558 44.0193 67.2434C44.9487 67.2311 45.8576 67.5166 46.6129 68.0583L47.5928 68.7492L90.4328 99.5059Z" fill="#D9D9D9"/>
</svg>
