<svg width="34" height="34" viewBox="0 0 34 34" fill="none" xmlns="http://www.w3.org/2000/svg">
<path d="M2.1971 15.8177C1.41535 15.7713 0.737587 16.3682 0.758224 17.151C0.83247 19.9671 1.62513 22.7262 3.07151 25.1618C4.75995 28.0051 7.26173 30.277 10.254 31.6846C13.2463 33.0921 16.5917 33.5706 19.8585 33.0583C23.1254 32.546 26.1638 31.0664 28.5815 28.8105C30.9993 26.5546 32.6855 23.6258 33.4226 20.4022C34.1596 17.1786 33.9137 13.8081 32.7165 10.7257C31.5193 7.6432 29.4258 4.99025 26.7062 3.10918C24.3764 1.49779 21.6788 0.516174 18.8746 0.247314C18.095 0.172573 17.4527 0.807426 17.445 1.59052L17.405 5.63818C17.3973 6.42127 18.0293 7.05173 18.8028 7.17393C20.2291 7.39924 21.5929 7.94252 22.7903 8.77072C24.3783 9.86905 25.6006 11.4181 26.2997 13.2179C26.9987 15.0177 27.1423 16.9857 26.7119 18.8679C26.2816 20.7501 25.297 22.4602 23.8853 23.7774C22.4736 25.0946 20.6996 25.9585 18.7921 26.2576C16.8846 26.5567 14.9313 26.2773 13.1841 25.4555C11.437 24.6337 9.97621 23.3071 8.99036 21.6469C8.24696 20.3951 7.79933 18.997 7.67321 17.5585C7.60481 16.7784 7.01958 16.1043 6.23783 16.0578L2.1971 15.8177Z" fill="#FFCDCD"/>
<circle cx="7.98463" cy="7.37465" r="7.19866" transform="rotate(-179.883 7.98463 7.37465)" fill="#FF2F2F"/>
</svg>
