<svg xmlns="http://www.w3.org/2000/svg" xmlns:xlink="http://www.w3.org/1999/xlink" version="1.1" width="1000" height="1000" viewBox="0 0 1000 1000" xml:space="preserve">
<desc>Created with Fabric.js 3.5.0</desc>
<defs>
</defs>
<rect x="0" y="0" width="100%" height="100%" fill="#ffffff"/>
<g transform="matrix(41.3223 0 0 41.3223 499.9998 499.9998)" id="893589">
<g style="" vector-effect="non-scaling-stroke">
		<g transform="matrix(1 0 0 1 -0.1557 2.1591)">
<path style="stroke: rgb(255,47,47); stroke-width: 1.5; stroke-dasharray: none; stroke-linecap: round; stroke-dashoffset: 0; stroke-linejoin: round; stroke-miterlimit: 4; is-custom-font: none; font-file-url: none; fill: none; fill-rule: evenodd; opacity: 1;" transform=" translate(-10.3444, -13.159)" d="M 14.5137 20.5 H 6.16592 C 3.09955 20.5 0.747152 19.3925 1.41534 14.9348 L 2.19338 8.8936 C 2.60528 6.66934 4.02404 5.81808 5.26889 5.81808 H 15.4474 C 16.7105 5.81808 18.0469 6.73342 18.5229 8.8936 L 19.3009 14.9348 C 19.8684 18.889 17.5801 20.5 14.5137 20.5 Z" stroke-linecap="round"/>
</g>
		<g transform="matrix(1 0 0 1 -0.1785 -7.5618)">
<path style="stroke: rgb(255,47,47); stroke-width: 1.5; stroke-dasharray: none; stroke-linecap: round; stroke-dashoffset: 0; stroke-linejoin: round; stroke-miterlimit: 4; is-custom-font: none; font-file-url: none; fill: none; fill-rule: nonzero; opacity: 1;" transform=" translate(-10.3215, -3.4382)" d="M 14.651 5.5984 C 14.651 3.21233 12.7167 1.27804 10.3307 1.27804 V 1.27804 C 9.18168 1.27317 8.07807 1.7262 7.26388 2.53695 C 6.44969 3.34771 5.99199 4.44939 5.992 5.5984 H 5.992" stroke-linecap="round"/>
</g>
		<g transform="matrix(1 0 0 1 2.7734 -0.8982)">
<path style="stroke: rgb(255,47,47); stroke-width: 1.5; stroke-dasharray: none; stroke-linecap: round; stroke-dashoffset: 0; stroke-linejoin: round; stroke-miterlimit: 4; is-custom-font: none; font-file-url: none; fill: none; fill-rule: nonzero; opacity: 1;" transform=" translate(-13.2735, -10.1018)" d="M 13.2963 10.1018 H 13.2506" stroke-linecap="round"/>
</g>
		<g transform="matrix(1 0 0 1 -3.0571 -0.8982)">
<path style="stroke: rgb(255,47,47); stroke-width: 1.5; stroke-dasharray: none; stroke-linecap: round; stroke-dashoffset: 0; stroke-linejoin: round; stroke-miterlimit: 4; is-custom-font: none; font-file-url: none; fill: none; fill-rule: nonzero; opacity: 1;" transform=" translate(-7.4428, -10.1018)" d="M 7.46572 10.1018 H 7.41995" stroke-linecap="round"/>
</g>
</g>
</g>
</svg>
