<svg width="20" height="20" viewBox="0 0 20 20" fill="none" xmlns="http://www.w3.org/2000/svg">
<path opacity="0.4" d="M0.804077 13.477C0.804077 13.477 0.946077 15.215 0.979077 15.763C1.02308 16.498 1.30708 17.319 1.78108 17.889C2.45008 18.697 3.23808 18.982 4.29008 18.984C5.52708 18.986 14.5221 18.986 15.7591 18.984C16.8111 18.982 17.5991 18.697 18.2681 17.889C18.7421 17.319 19.0261 16.498 19.0711 15.763C19.1031 15.215 19.2451 13.477 19.2451 13.477" stroke="#130F26" stroke-width="1.5" stroke-linecap="round" stroke-linejoin="round"/>
<path d="M6.49597 3.3295V2.9585C6.49597 1.7385 7.48397 0.750504 8.70397 0.750504H11.286C12.505 0.750504 13.494 1.7385 13.494 2.9585L13.495 3.3295" stroke="#130F26" stroke-width="1.5" stroke-linecap="round" stroke-linejoin="round"/>
<path d="M9.995 14.6782V13.3842" stroke="#130F26" stroke-width="1.5" stroke-linecap="round" stroke-linejoin="round"/>
<path fill-rule="evenodd" clip-rule="evenodd" d="M0.749878 6.3891V9.8561C2.66788 11.1211 4.96588 12.0071 7.48788 12.3581C7.78988 11.2571 8.78288 10.4501 9.98988 10.4501C11.1779 10.4501 12.1909 11.2571 12.4729 12.3681C15.0049 12.0171 17.3119 11.1311 19.2399 9.8561V6.3891C19.2399 4.6951 17.8769 3.3311 16.1829 3.3311H3.81688C2.12288 3.3311 0.749878 4.6951 0.749878 6.3891Z" stroke="#130F26" stroke-width="1.5" stroke-linecap="round" stroke-linejoin="round"/>
</svg>
